<?xml version="1.0" standalone="no"?><!DOCTYPE svg PUBLIC "-//W3C//DTD SVG 1.1//EN" "http://www.w3.org/Graphics/SVG/1.1/DTD/svg11.dtd"><svg height="1200" legacy-metrics="false" node-id="1" sillyvg="true" template-height="1200" template-width="1200" version="1.1" viewBox="0 0 1200 1200" width="1200" xmlns="http://www.w3.org/2000/svg" xmlns:xlink="http://www.w3.org/1999/xlink"><defs node-id="42"><linearGradient gradientUnits="userSpaceOnUse" id="未命名的渐变_33" node-id="5" x1="601.79" x2="601.79" y1="1106.1" y2="807.25"><stop offset="0" stop-color="#ffffff" stop-opacity="0"></stop><stop offset="0.77" stop-color="#4be2ac"></stop></linearGradient><linearGradient gradientUnits="userSpaceOnUse" id="未命名的渐变_33-2" node-id="8" x1="938.64" x2="938.64" y1="382.21" y2="219.5"><stop offset="0" stop-color="#ffffff" stop-opacity="0"></stop><stop offset="0.77" stop-color="#4be2ac"></stop></linearGradient><linearGradient gradientUnits="userSpaceOnUse" id="未命名的渐变_33-3" node-id="9" x1="214.75" x2="214.75" y1="588.09" y2="425.38"><stop offset="0" stop-color="#ffffff" stop-opacity="0"></stop><stop offset="0.77" stop-color="#4be2ac"></stop></linearGradient><linearGradient gradientUnits="userSpaceOnUse" id="未命名的渐变_33-4" node-id="10" x1="1020.99" x2="1020.99" y1="687.71" y2="591.41"><stop offset="0" stop-color="#ffffff" stop-opacity="0"></stop><stop offset="0.77" stop-color="#4be2ac"></stop></linearGradient><linearGradient gradientUnits="userSpaceOnUse" id="未命名的渐变_162" node-id="11" x1="1113.16" x2="1113.16" y1="395.5" y2="355.65"><stop offset="0" stop-color="#6de7bb" stop-opacity="0.4"></stop><stop offset="0.77" stop-color="#55e2ac"></stop></linearGradient><linearGradient gradientUnits="userSpaceOnUse" id="未命名的渐变_162-2" node-id="14" x1="292.97" x2="292.97" y1="289.24" y2="222.83"><stop offset="0" stop-color="#6de7bb" stop-opacity="0.4"></stop><stop offset="0.77" stop-color="#55e2ac"></stop></linearGradient><linearGradient gradientUnits="userSpaceOnUse" id="未命名的渐变_69" node-id="15" x1="613.54" x2="613.54" y1="885.34" y2="837.04"><stop offset="0" stop-color="#009eaa" stop-opacity="0.02"></stop><stop offset="0.77" stop-color="#004c55" stop-opacity="0.2"></stop></linearGradient><linearGradient gradientUnits="userSpaceOnUse" id="未命名的渐变_156" node-id="18" x1="628.74" x2="628.74" y1="372.66" y2="850.45"><stop offset="0" stop-color="#6de7bb" stop-opacity="0.62"></stop><stop offset="0.77" stop-color="#55e2ac"></stop></linearGradient><linearGradient gradientUnits="userSpaceOnUse" id="未命名的渐变_33-5" node-id="21" x1="648.49" x2="648.49" y1="850.45" y2="372.66"><stop offset="0" stop-color="#ffffff" stop-opacity="0"></stop><stop offset="0.77" stop-color="#4be2ac"></stop></linearGradient></defs><g node-id="160"><path d="M 1201.00 1106.10 C 1179.67 939.15 919.57 807.25 601.79 807.25 C 284.01 807.25 23.91 939.15 2.57 1106.10 Z" fill="url(#未命名的渐变_33)" fill-opacity="0.17" fill-rule="nonzero" group-id="1" node-id="102" stroke-linecap="butt" stroke-opacity="0.17" stroke-width="1" target-height="298.84998" target-width="1198.43" target-x="2.57" target-y="807.25"></path></g><g node-id="161"><path d="M 1003.73 382.21 C 1035.78 381.79 1061.54 355.69 1061.54 323.63 C 1061.54 291.58 1035.78 265.48 1003.73 265.06 C 1002.63 265.06 1001.60 265.33 1000.52 265.39 C 992.25 238.14 967.13 219.50 938.64 219.50 C 910.16 219.50 885.04 238.14 876.77 265.39 C 875.69 265.33 874.66 265.06 873.56 265.06 C 852.45 264.78 832.83 275.89 822.19 294.12 C 811.56 312.36 811.56 334.91 822.19 353.15 C 832.83 371.38 852.45 382.49 873.56 382.21 Z" fill="url(#未命名的渐变_33-2)" fill-opacity="0.3" fill-rule="nonzero" group-id="2" node-id="107" stroke-linecap="butt" stroke-opacity="0.3" stroke-width="1" target-height="162.70767" target-width="247.32996" target-x="814.2147" target-y="219.50232"></path></g><g node-id="162"><path d="M 279.84 588.09 C 311.89 587.67 337.65 561.57 337.65 529.51 C 337.65 497.46 311.89 471.36 279.84 470.94 C 278.74 470.94 277.71 471.20 276.63 471.26 C 268.36 444.01 243.24 425.37 214.75 425.37 C 186.27 425.37 161.15 444.01 152.88 471.26 C 151.79 471.20 150.77 470.94 149.67 470.94 C 128.56 470.66 108.94 481.77 98.30 500.00 C 87.67 518.24 87.67 540.79 98.30 559.03 C 108.94 577.26 128.56 588.37 149.67 588.09 Z" fill="url(#未命名的渐变_33-3)" fill-opacity="0.3" fill-rule="nonzero" group-id="3" node-id="112" stroke-linecap="butt" stroke-opacity="0.3" stroke-width="1" target-height="162.71771" target-width="247.33" target-x="90.32463" target-y="425.3723"></path></g><g node-id="163"><path d="M 1059.51 687.71 C 1072.03 687.92 1083.70 681.36 1090.03 670.55 C 1096.35 659.74 1096.35 646.35 1090.03 635.54 C 1083.70 624.73 1072.03 618.17 1059.51 618.38 C 1058.86 618.38 1058.25 618.53 1057.61 618.57 C 1052.72 602.44 1037.85 591.41 1021.00 591.41 C 1004.14 591.41 989.27 602.44 984.38 618.57 C 983.73 618.57 983.13 618.38 982.48 618.38 C 969.96 618.17 958.29 624.73 951.96 635.54 C 945.64 646.35 945.64 659.74 951.96 670.55 C 958.29 681.36 969.96 687.92 982.48 687.71 Z" fill="url(#未命名的渐变_33-4)" fill-opacity="0.3" fill-rule="nonzero" group-id="4" node-id="117" stroke-linecap="butt" stroke-opacity="0.3" stroke-width="1" target-height="96.30188" target-width="147.43103" target-x="947.2794" target-y="591.40814"></path></g><g node-id="164"><path d="M 1133.08 375.57 C 1133.08 386.57 1124.16 395.49 1113.16 395.49 C 1102.16 395.49 1093.24 386.57 1093.24 375.57 C 1093.24 364.57 1102.16 355.65 1113.16 355.65 C 1124.16 355.65 1133.08 364.57 1133.08 375.57 Z" fill="url(#未命名的渐变_162)" fill-opacity="0.3" fill-rule="nonzero" group-id="5" node-id="122" stroke-linecap="butt" stroke-opacity="0.3" stroke-width="1" target-height="39.839996" target-width="39.839966" target-x="1093.24" target-y="355.65"></path></g><g node-id="165"><path d="M 326.18 256.03 C 326.18 274.37 311.31 289.24 292.97 289.24 C 274.63 289.24 259.76 274.37 259.76 256.03 C 259.76 237.69 274.63 222.82 292.97 222.82 C 311.31 222.82 326.18 237.69 326.18 256.03 Z" fill="url(#未命名的渐变_162-2)" fill-opacity="0.3" fill-rule="nonzero" group-id="6" hidden="true" node-id="127" stroke-linecap="butt" stroke-opacity="0.3" stroke-width="1" target-height="66.41998" target-width="66.41998" target-x="259.76" target-y="222.82" visibility="hidden"></path></g><path d="M 833.37 861.19 C 833.37 874.53 734.95 885.34 613.54 885.34 C 492.13 885.34 393.71 874.53 393.71 861.19 C 393.71 847.85 492.13 837.04 613.54 837.04 C 734.95 837.04 833.37 847.85 833.37 861.19 Z" fill="url(#未命名的渐变_69)" fill-rule="nonzero" hidden="true" node-id="130" stroke="none" target-height="48.30005" target-width="439.66" target-x="393.71" target-y="837.04" visibility="hidden"></path><path d="M 757.08 372.66 L 500.39 372.66 C 480.58 372.66 461.58 380.53 447.57 394.54 C 433.57 408.55 425.70 427.55 425.70 447.36 L 425.70 775.76 C 425.70 795.57 433.57 814.57 447.57 828.58 C 461.58 842.58 480.58 850.45 500.39 850.45 L 757.08 850.45 C 776.89 850.45 795.89 842.58 809.90 828.58 C 823.91 814.57 831.78 795.57 831.78 775.76 L 831.78 447.36 C 831.78 427.55 823.91 408.55 809.90 394.54 C 795.89 380.53 776.89 372.66 757.08 372.66 Z" fill="#ffffff" fill-rule="nonzero" hidden="true" node-id="132" stroke="none" target-height="477.79" target-width="406.08002" target-x="425.7" target-y="372.66" visibility="hidden"></path><path d="M 757.08 372.66 L 500.39 372.66 C 480.58 372.66 461.58 380.53 447.57 394.54 C 433.57 408.55 425.70 427.55 425.70 447.36 L 425.70 775.76 C 425.70 795.57 433.57 814.57 447.57 828.58 C 461.58 842.58 480.58 850.45 500.39 850.45 L 757.08 850.45 C 776.89 850.45 795.89 842.58 809.90 828.58 C 823.91 814.57 831.78 795.57 831.78 775.76 L 831.78 447.36 C 831.78 427.55 823.91 408.55 809.90 394.54 C 795.89 380.53 776.89 372.66 757.08 372.66 Z" fill="url(#未命名的渐变_156)" fill-opacity="0.5" fill-rule="nonzero" group-id="7" hidden="true" node-id="136" stroke-linecap="butt" stroke-opacity="0.5" stroke-width="1" target-height="477.79" target-width="406.08002" target-x="425.7" target-y="372.66" visibility="hidden"></path><path d="M 725.34 372.66 L 468.65 372.66 C 448.84 372.66 429.84 380.53 415.83 394.54 C 401.82 408.55 393.95 427.55 393.95 447.36 L 393.95 775.76 C 393.95 795.57 401.82 814.57 415.83 828.58 C 429.84 842.58 448.84 850.45 468.65 850.45 L 725.34 850.45 C 766.58 850.43 800.00 817.00 800.00 775.76 L 800.00 447.36 C 800.01 406.12 766.58 372.68 725.34 372.66 Z" fill="#c4f2e2" fill-rule="nonzero" hidden="true" node-id="139" stroke="none" target-height="477.79" target-width="406.05" target-x="393.95" target-y="372.66" visibility="hidden"></path><path d="M 725.34 372.66 L 640.71 372.66 L 496.94 850.45 L 725.34 850.45 C 766.58 850.43 800.00 817.00 800.00 775.76 L 800.00 447.36 C 800.01 406.12 766.58 372.68 725.34 372.66 Z" fill="url(#未命名的渐变_33-5)" fill-opacity="0.3" fill-rule="nonzero" group-id="8" hidden="true" node-id="143" stroke-linecap="butt" stroke-opacity="0.3" stroke-width="1" target-height="477.79" target-width="303.06" target-x="496.94" target-y="372.66" visibility="hidden"></path><path d="M 468.65 372.66 C 448.84 372.66 429.84 380.53 415.83 394.54 C 401.82 408.55 393.95 427.55 393.95 447.36 L 393.95 775.76 C 393.95 795.57 401.82 814.57 415.83 828.58 C 429.84 842.58 448.84 850.45 468.65 850.45 L 496.94 850.45 L 640.71 372.66 Z" fill="#c4f2e2" fill-rule="nonzero" hidden="true" node-id="146" stroke="none" target-height="477.79" target-width="246.76001" target-x="393.95" target-y="372.66" visibility="hidden"></path><path d="M 718.59 676.67 C 729.39 676.67 738.14 686.95 738.14 699.67 C 738.14 712.39 729.39 722.67 718.59 722.67 L 563.44 722.67 C 552.65 722.67 543.90 712.38 543.90 699.67 C 543.90 686.96 552.65 676.67 563.44 676.67 Z" fill="#ffffff" fill-rule="nonzero" hidden="true" node-id="148" stroke="none" target-height="46" target-width="194.23999" target-x="543.9" target-y="676.67" visibility="hidden"></path><path d="M 493.89 676.10 C 494.99 676.10 496.08 676.18 497.17 676.34 C 508.65 678.14 517.11 688.03 517.11 699.65 C 517.11 711.28 508.65 721.17 497.17 722.97 C 496.08 723.12 494.99 723.20 493.89 723.20 C 480.88 723.20 470.34 712.66 470.34 699.65 C 470.34 686.64 480.88 676.10 493.89 676.10 Z" fill="#ffffff" fill-rule="nonzero" hidden="true" node-id="150" stroke="none" target-height="47.100037" target-width="46.773407" target-x="470.34" target-y="676.1" visibility="hidden"></path><path d="M 718.59 582.23 C 729.39 582.23 738.14 592.51 738.14 605.23 C 738.14 617.95 729.39 628.23 718.59 628.23 L 563.44 628.23 C 552.65 628.23 543.90 617.94 543.90 605.23 C 543.90 592.52 552.65 582.23 563.44 582.23 Z" fill="#ffffff" fill-rule="nonzero" hidden="true" node-id="152" stroke="none" target-height="46" target-width="194.23999" target-x="543.9" target-y="582.23" visibility="hidden"></path><path d="M 493.89 581.66 C 494.99 581.66 496.08 581.74 497.17 581.90 C 508.65 583.70 517.11 593.59 517.11 605.22 C 517.11 616.84 508.65 626.73 497.17 628.53 C 496.08 628.68 494.99 628.76 493.89 628.76 C 480.88 628.76 470.34 618.22 470.34 605.21 C 470.34 592.20 480.88 581.66 493.89 581.66 Z" fill="#ffffff" fill-rule="nonzero" hidden="true" node-id="154" stroke="none" target-height="47.100037" target-width="46.773407" target-x="470.34" target-y="581.66" visibility="hidden"></path><path d="M 718.59 487.79 C 729.39 487.79 738.14 498.07 738.14 510.79 C 738.14 523.51 729.39 533.79 718.59 533.79 L 563.44 533.79 C 552.65 533.79 543.90 523.50 543.90 510.79 C 543.90 498.08 552.65 487.79 563.44 487.79 Z" fill="#ffffff" fill-rule="nonzero" hidden="true" node-id="156" stroke="none" target-height="45.99997" target-width="194.23999" target-x="543.9" target-y="487.79" visibility="hidden"></path><path d="M 493.89 487.22 C 494.99 487.22 496.08 487.30 497.17 487.46 C 508.65 489.26 517.11 499.15 517.11 510.77 C 517.11 522.40 508.65 532.29 497.17 534.09 C 496.08 534.24 494.99 534.32 493.89 534.32 C 480.88 534.32 470.34 523.78 470.34 510.77 C 470.34 497.76 480.88 487.22 493.89 487.22 Z" fill="#ffffff" fill-rule="nonzero" hidden="true" node-id="158" stroke="none" target-height="47.100006" target-width="46.773407" target-x="470.34" target-y="487.22" visibility="hidden"></path></svg>