<?xml version="1.0" standalone="no"?><!DOCTYPE svg PUBLIC "-//W3C//DTD SVG 1.1//EN" "http://www.w3.org/Graphics/SVG/1.1/DTD/svg11.dtd"><svg t="1681376653467" class="icon" viewBox="0 0 1024 1024" version="1.1" xmlns="http://www.w3.org/2000/svg" p-id="10398" xmlns:xlink="http://www.w3.org/1999/xlink" width="200" height="200"><path d="M512 920.54c-222.12 0-402.83-180.71-402.83-402.83S289.87 114.87 512 114.87c222.12 0 402.83 180.71 402.83 402.83 0 222.14-180.72 402.84-402.83 402.84z" fill="#0077F1" p-id="10399"></path><path d="M512 171.82c-190.73 0-345.88 155.16-345.88 345.89 0 190.72 155.16 345.88 345.88 345.88 190.73 0 345.89-155.17 345.89-345.88-0.01-190.72-155.18-345.89-345.89-345.89z" fill="#ACD8FF" p-id="10400"></path><path d="M102.77 277.71a28.482 28.482 0 0 1-25.03-14.97 28.464 28.464 0 0 1 1.28-29.14C123.59 165.8 184.3 108.63 254.6 68.29c13.64-7.82 31.04-3.11 38.87 10.53a28.47 28.47 0 0 1 2.79 21.61 28.486 28.486 0 0 1-13.31 17.25C220.36 153.6 166.29 204.5 126.6 264.87a28.509 28.509 0 0 1-23.83 12.84zM921.22 277.7c-9.59 0.01-18.55-4.82-23.82-12.84-39.7-60.37-93.76-111.27-156.36-147.18-9-4.97-14.63-14.41-14.71-24.7a28.478 28.478 0 0 1 14.31-24.94 28.467 28.467 0 0 1 28.75 0.25c70.3 40.34 131.02 97.5 175.58 165.29a28.458 28.458 0 0 1 1.28 29.15 28.45 28.45 0 0 1-25.03 14.97zM208.32 959.73a28.44 28.44 0 0 1-26.31-17.58c-4.41-10.64-1.96-22.89 6.18-31.03l78.4-78.39a28.467 28.467 0 0 1 20.13-8.34c7.56 0.01 14.8 3.01 20.13 8.35a28.449 28.449 0 0 1 8.34 20.14c0 7.55-2.99 14.79-8.34 20.13l-78.39 78.39a28.422 28.422 0 0 1-20.14 8.33z m607.35 0c-7.55 0.01-14.8-2.99-20.13-8.34L717.15 873c-10.84-11.17-10.7-28.96 0.3-39.97 11.01-11 28.81-11.13 39.97-0.29l78.39 78.39a28.478 28.478 0 0 1 6.17 31.02c-4.42 10.64-14.79 17.58-26.31 17.58z m-159.4-260.29a28.39 28.39 0 0 1-20.14-8.34L491.86 546.84a28.49 28.49 0 0 1-8.34-20.14V289.65c0-15.73 12.75-28.48 28.47-28.48 15.73 0 28.48 12.75 28.48 28.48V514.9l135.94 135.93a28.488 28.488 0 0 1 6.15 31.03 28.474 28.474 0 0 1-26.29 17.58z m0 0" fill="#0077F1" p-id="10401"></path></svg>