<?xml version="1.0" standalone="no"?><!DOCTYPE svg PUBLIC "-//W3C//DTD SVG 1.1//EN" "http://www.w3.org/Graphics/SVG/1.1/DTD/svg11.dtd"><svg height="60" legacy-metrics="false" node-id="1" sillyvg="true" template-height="60" template-width="60" version="1.1" viewBox="0 0 60 60" width="60" xmlns="http://www.w3.org/2000/svg" xmlns:xlink="http://www.w3.org/1999/xlink"><defs node-id="49"></defs><path d="M 0.00 0.00 L 60.00 0.00 L 60.00 60.00 L 0.00 60.00 Z" fill="#edf3fc" fill-rule="nonzero" node-id="51" stroke="none" target-height="60" target-width="60" target-x="0" target-y="0"></path><g node-id="139"><path d="M 14.30 12.80 L 14.50 12.80 L 14.30 12.80 C 13.10 13.20 12.20 14.10 11.90 15.20 L 11.80 15.40 L 11.70 15.20 C 11.40 14.10 10.50 13.20 9.30 12.90 L 9.10 12.90 L 9.30 12.90 C 10.50 12.60 11.40 11.70 11.70 10.60 L 11.80 10.40 L 11.90 10.60 C 12.20 11.60 13.10 12.50 14.30 12.80 L 14.30 12.80 Z" fill="#5d8ef9" fill-rule="nonzero" group-id="1" node-id="55" stroke="none" target-height="5" target-width="5.3999996" target-x="9.1" target-y="10.4"></path><path d="M 53.10 39.20 L 53.30 39.20 L 53.10 39.20 C 52.10 39.50 51.30 40.30 51.00 41.30 L 51.00 41.50 L 51.00 41.30 C 50.70 40.30 50.00 39.60 48.90 39.30 L 48.70 39.30 L 48.90 39.30 C 49.90 39.10 50.70 38.30 51.00 37.30 L 51.00 37.10 L 51.00 37.30 C 51.30 38.20 52.10 38.90 53.10 39.20 L 53.10 39.20 Z" fill="#ffbe1b" fill-rule="nonzero" group-id="1" node-id="57" stroke="none" target-height="4.4000015" target-width="4.5999985" target-x="48.7" target-y="37.1"></path><path d="M 23.20 42.20 L 23.40 42.20 L 23.20 42.20 C 22.20 42.50 21.40 43.30 21.10 44.30 L 21.10 44.50 L 21.10 44.30 C 20.80 43.30 20.00 42.60 19.00 42.30 L 18.80 42.30 L 19.00 42.30 C 20.00 42.10 20.80 41.30 21.10 40.30 L 21.10 40.10 L 21.10 40.30 C 21.30 41.10 22.10 41.90 23.20 42.20 L 23.20 42.20 Z" fill="#5d8ef9" fill-rule="nonzero" group-id="1" node-id="59" stroke="none" target-height="4.4000015" target-width="4.6000004" target-x="18.8" target-y="40.1"></path><path d="M 29.70 46.00 L 30.00 46.00 L 29.70 46.10 C 28.00 46.50 26.60 47.80 26.20 49.50 L 26.10 49.80 L 26.00 49.50 C 25.60 47.80 24.20 46.50 22.50 46.10 L 22.20 46.00 L 22.50 45.90 C 24.20 45.50 25.60 44.20 26.00 42.50 L 26.10 42.20 L 26.20 42.50 C 26.60 44.20 27.90 45.50 29.70 46.00 L 29.70 46.00 Z" fill="#5d8ef9" fill-rule="nonzero" group-id="1" node-id="61" stroke="none" target-height="7.5999985" target-width="7.799999" target-x="22.2" target-y="42.2"></path><path d="M 9.50 16.70 L 9.60 16.70 L 9.50 16.70 C 8.90 16.90 8.40 17.40 8.20 18.00 L 8.20 18.10 L 8.20 18.00 C 8.00 17.40 7.60 16.90 6.90 16.80 L 6.80 16.80 L 6.90 16.80 C 7.50 16.60 8.00 16.20 8.20 15.60 L 8.20 15.50 L 8.20 15.60 C 8.30 16.10 8.80 16.50 9.50 16.70 L 9.50 16.70 Z" fill="#5d8ef9" fill-rule="nonzero" group-id="1" node-id="63" stroke="none" target-height="2.6000004" target-width="2.8000002" target-x="6.8" target-y="15.5"></path><path d="M 17.10 18.10 L 11.00 18.10 C 9.80 18.10 8.80 19.10 8.80 20.30 L 8.80 35.00 C 9.10 34.90 9.40 34.90 9.70 34.90 C 11.30 34.90 12.60 36.20 12.60 37.80 C 12.60 37.80 12.60 37.90 12.60 37.90 L 17.10 37.90 C 18.30 37.90 19.30 36.90 19.30 35.70 L 19.30 20.30 C 19.20 19.10 18.30 18.10 17.10 18.10 Z" fill="#1890ff" fill-rule="nonzero" group-id="1" node-id="65" stroke="none" target-height="19.800001" target-width="10.499999" target-x="8.8" target-y="18.1"></path><path d="M 11.10 21.90 L 16.90 21.90 L 16.90 23.40 L 11.10 23.40 Z" fill="#ffffff" fill-rule="nonzero" group-id="1" node-id="67" stroke="none" target-height="1.5" target-width="5.799999" target-x="11.1" target-y="21.9"></path><path d="M 11.10 25.40 L 16.90 25.40 L 16.90 26.90 L 11.10 26.90 Z" fill="#ffffff" fill-rule="nonzero" group-id="1" node-id="69" stroke="none" target-height="1.5" target-width="5.799999" target-x="11.1" target-y="25.4"></path><path d="M 11.10 28.90 L 16.90 28.90 L 16.90 30.40 L 11.10 30.40 Z" fill="#ffffff" fill-rule="nonzero" group-id="1" node-id="71" stroke="none" target-height="1.5" target-width="5.799999" target-x="11.1" target-y="28.9"></path><path d="M 11.10 32.50 L 16.90 32.50 L 16.90 34.00 L 11.10 34.00 Z" fill="#ffffff" fill-rule="nonzero" group-id="1" node-id="73" stroke="none" target-height="1.5" target-width="5.799999" target-x="11.1" target-y="32.5"></path><path d="M 14.80 19.90 C 14.80 20.30 14.50 20.60 14.10 20.60 C 13.70 20.60 13.40 20.30 13.40 19.90 C 13.40 19.50 13.70 19.20 14.10 19.20 C 14.50 19.20 14.80 19.50 14.80 19.90 Z" fill="#ffffff" fill-rule="nonzero" group-id="1" node-id="75" stroke="none" target-height="1.3999996" target-width="1.4000006" target-x="13.4" target-y="19.2"></path><path d="M 33.80 21.20 C 32.20 21.20 30.90 19.90 30.90 18.30 C 30.90 18.20 30.90 18.10 30.90 18.10 L 26.10 18.10 C 24.90 18.10 23.90 19.10 23.90 20.30 L 23.90 35.60 C 23.90 36.80 24.90 37.80 26.10 37.80 L 32.20 37.80 C 33.40 37.80 34.40 36.80 34.40 35.60 L 34.40 21.20 C 34.20 21.20 34.00 21.20 33.80 21.20 Z" fill="#1890ff" fill-rule="nonzero" group-id="1" node-id="77" stroke="none" target-height="19.699999" target-width="10.500002" target-x="23.9" target-y="18.1"></path><path d="M 26.30 21.90 L 32.10 21.90 L 32.10 23.40 L 26.30 23.40 Z" fill="#ffffff" fill-rule="nonzero" group-id="1" node-id="79" stroke="none" target-height="1.5" target-width="5.799999" target-x="26.3" target-y="21.9"></path><path d="M 26.30 25.40 L 32.10 25.40 L 32.10 26.90 L 26.30 26.90 Z" fill="#ffffff" fill-rule="nonzero" group-id="1" node-id="81" stroke="none" target-height="1.5" target-width="5.799999" target-x="26.3" target-y="25.4"></path><path d="M 26.30 28.90 L 32.10 28.90 L 32.10 30.40 L 26.30 30.40 Z" fill="#ffffff" fill-rule="nonzero" group-id="1" node-id="83" stroke="none" target-height="1.5" target-width="5.799999" target-x="26.3" target-y="28.9"></path><path d="M 26.30 32.50 L 32.10 32.50 L 32.10 34.00 L 26.30 34.00 Z" fill="#ffffff" fill-rule="nonzero" group-id="1" node-id="85" stroke="none" target-height="1.5" target-width="5.799999" target-x="26.3" target-y="32.5"></path><path d="M 29.90 19.90 C 29.90 20.30 29.60 20.60 29.20 20.60 C 28.80 20.60 28.50 20.30 28.50 19.90 C 28.50 19.50 28.80 19.20 29.20 19.20 C 29.60 19.20 29.90 19.50 29.90 19.90 Z" fill="#ffffff" fill-rule="nonzero" group-id="1" node-id="87" stroke="none" target-height="1.3999996" target-width="1.3999996" target-x="28.5" target-y="19.2"></path><path d="M 29.90 36.00 C 29.90 36.40 29.60 36.70 29.20 36.70 C 28.80 36.70 28.50 36.40 28.50 36.00 C 28.50 35.60 28.80 35.30 29.20 35.30 C 29.60 35.30 29.90 35.60 29.90 36.00 Z" fill="#ffffff" fill-rule="nonzero" group-id="1" node-id="89" stroke="none" target-height="1.4000015" target-width="1.3999996" target-x="28.5" target-y="35.3"></path><path d="M 49.10 21.20 C 47.50 21.20 46.20 19.90 46.20 18.30 C 46.20 18.20 46.20 18.10 46.20 18.10 L 41.20 18.10 C 40.00 18.10 39.00 19.10 39.00 20.30 L 39.00 35.60 C 39.00 36.80 40.00 37.80 41.20 37.80 L 47.30 37.80 C 48.50 37.80 49.50 36.80 49.50 35.60 L 49.50 21.20 C 49.40 21.20 49.30 21.20 49.10 21.20 Z" fill="#1890ff" fill-rule="nonzero" group-id="1" node-id="91" stroke="none" target-height="19.699999" target-width="10.5" target-x="39" target-y="18.1"></path><path d="M 41.50 21.90 L 47.30 21.90 L 47.30 23.40 L 41.50 23.40 Z" fill="#ffffff" fill-rule="nonzero" group-id="1" node-id="93" stroke="none" target-height="1.5" target-width="5.799999" target-x="41.5" target-y="21.9"></path><path d="M 41.50 25.40 L 47.30 25.40 L 47.30 26.90 L 41.50 26.90 Z" fill="#ffffff" fill-rule="nonzero" group-id="1" node-id="95" stroke="none" target-height="1.5" target-width="5.799999" target-x="41.5" target-y="25.4"></path><path d="M 41.50 28.90 L 47.30 28.90 L 47.30 30.40 L 41.50 30.40 Z" fill="#ffffff" fill-rule="nonzero" group-id="1" node-id="97" stroke="none" target-height="1.5" target-width="5.799999" target-x="41.5" target-y="28.9"></path><path d="M 41.50 32.50 L 47.30 32.50 L 47.30 34.00 L 41.50 34.00 Z" fill="#ffffff" fill-rule="nonzero" group-id="1" node-id="99" stroke="none" target-height="1.5" target-width="5.799999" target-x="41.5" target-y="32.5"></path><path d="M 45.10 36.00 C 45.10 36.40 44.80 36.70 44.40 36.70 C 44.00 36.70 43.70 36.40 43.70 36.00 C 43.70 35.60 44.00 35.30 44.40 35.30 C 44.80 35.30 45.10 35.60 45.10 36.00 Z" fill="#ffffff" fill-rule="nonzero" group-id="1" node-id="101" stroke="none" target-height="1.4000015" target-width="1.3999977" target-x="43.7" target-y="35.3"></path><path d="M 29.20 17.70 C 28.90 17.70 28.70 17.50 28.60 17.30 C 28.50 17.10 28.40 16.90 28.30 16.60 C 28.10 16.30 28.30 15.90 28.60 15.70 C 28.90 15.50 29.30 15.70 29.50 16.00 C 29.60 16.30 29.70 16.50 29.80 16.80 C 29.90 17.10 29.80 17.50 29.40 17.60 C 29.40 17.70 29.30 17.70 29.20 17.70 Z" fill="#1872ff" fill-rule="nonzero" group-id="1" node-id="103" stroke="none" target-height="2.0375004" target-width="1.5374985" target-x="28.2625" target-y="15.6625"></path><path d="M 14.40 17.70 C 14.30 17.70 14.30 17.70 14.20 17.70 C 13.90 17.60 13.70 17.20 13.80 16.90 C 13.90 16.60 14.00 16.40 14.10 16.10 C 14.30 15.80 14.60 15.60 15.00 15.80 C 15.30 16.00 15.50 16.30 15.30 16.70 C 15.20 16.90 15.10 17.10 15.00 17.40 C 14.90 17.60 14.70 17.70 14.40 17.70 Z" fill="#1872ff" fill-rule="nonzero" group-id="1" node-id="105" stroke="none" target-height="1.9361277" target-width="1.536128" target-x="13.8" target-y="15.763873"></path><path d="M 28.10 14.00 C 27.70 13.60 27.40 13.30 26.90 13.00 C 26.60 12.80 26.20 12.80 26.00 13.10 C 25.80 13.40 25.80 13.80 26.10 14.00 C 26.50 14.30 26.80 14.60 27.10 14.90 C 27.20 15.00 27.40 15.10 27.60 15.10 C 27.80 15.10 27.90 15.00 28.00 14.90 C 28.30 14.70 28.30 14.20 28.10 14.00 Z" fill="#1872ff" fill-rule="nonzero" group-id="1" node-id="107" stroke="none" target-height="2.2368011" target-width="2.374302" target-x="25.863197" target-y="12.863199"></path><path d="M 16.80 13.00 C 16.40 13.30 16.00 13.70 15.60 14.00 C 15.40 14.30 15.40 14.70 15.60 14.90 C 15.70 15.00 15.90 15.10 16.00 15.10 C 16.20 15.10 16.30 15.00 16.50 14.90 C 16.80 14.60 17.10 14.30 17.50 14.00 C 17.80 13.80 17.80 13.40 17.60 13.10 C 17.40 12.80 17.00 12.70 16.80 13.00 Z" fill="#1872ff" fill-rule="nonzero" group-id="1" node-id="109" stroke="none" target-height="2.2750006" target-width="2.2866344" target-x="15.450167" target-y="12.825"></path><path d="M 24.60 11.80 C 24.10 11.60 23.60 11.50 23.10 11.40 C 22.70 11.30 22.40 11.60 22.40 11.90 C 22.30 12.30 22.60 12.60 22.90 12.60 C 23.30 12.70 23.80 12.80 24.20 12.90 C 24.30 12.90 24.30 12.90 24.40 12.90 C 24.70 12.90 24.90 12.70 25.00 12.50 C 25.10 12.20 25.00 11.90 24.60 11.80 Z" fill="#1872ff" fill-rule="nonzero" group-id="1" node-id="111" stroke="none" target-height="1.5" target-width="2.6000004" target-x="22.4" target-y="11.4"></path><path d="M 21.50 11.20 L 19.90 10.30 C 19.60 10.10 19.20 10.20 19.00 10.60 C 18.80 10.90 18.90 11.30 19.20 11.50 L 19.50 11.60 C 19.30 11.60 19.20 11.70 19.00 11.70 C 18.70 11.80 18.50 12.20 18.60 12.50 C 18.70 12.80 18.90 12.90 19.20 12.90 C 19.30 12.90 19.30 12.90 19.40 12.90 C 19.50 12.90 19.60 12.80 19.80 12.80 L 19.70 13.00 C 19.50 13.30 19.60 13.70 19.90 13.90 C 20.00 14.00 20.10 14.00 20.20 14.00 C 20.40 14.00 20.60 13.90 20.80 13.70 L 21.70 12.10 C 21.80 12.00 21.80 11.80 21.80 11.60 C 21.70 11.40 21.60 11.30 21.50 11.20 Z" fill="#1872ff" fill-rule="nonzero" group-id="1" node-id="113" stroke="none" target-height="3.7786894" target-width="3.1999989" target-x="18.6" target-y="10.221311"></path><path d="M 43.70 40.30 C 43.60 40.30 43.50 40.30 43.40 40.20 C 43.10 40.00 42.90 39.70 43.10 39.30 C 43.20 39.10 43.30 38.90 43.40 38.60 C 43.50 38.30 43.90 38.10 44.20 38.20 C 44.50 38.30 44.70 38.70 44.60 39.00 C 44.50 39.30 44.40 39.50 44.30 39.80 C 44.20 40.20 44.00 40.30 43.70 40.30 Z" fill="#1872ff" fill-rule="nonzero" group-id="1" node-id="115" stroke="none" target-height="2.0999985" target-width="1.536129" target-x="43.06387" target-y="38.2"></path><path d="M 29.50 40.30 C 29.30 40.30 29.00 40.20 28.90 39.90 C 28.80 39.60 28.70 39.40 28.60 39.10 C 28.50 38.80 28.60 38.40 29.00 38.30 C 29.30 38.20 29.70 38.30 29.80 38.70 C 29.90 38.90 30.00 39.10 30.10 39.40 C 30.30 39.70 30.10 40.10 29.80 40.30 C 29.70 40.30 29.60 40.30 29.50 40.30 Z" fill="#1872ff" fill-rule="nonzero" group-id="1" node-id="117" stroke="none" target-height="2" target-width="1.5374985" target-x="28.6" target-y="38.3"></path><path d="M 32.30 42.00 C 31.90 41.70 31.60 41.40 31.30 41.10 C 31.10 40.80 30.60 40.80 30.40 41.10 C 30.10 41.30 30.10 41.80 30.40 42.00 C 30.80 42.40 31.10 42.70 31.60 43.00 C 31.70 43.10 31.80 43.10 32.00 43.10 C 32.20 43.10 32.40 43.00 32.50 42.80 C 32.70 42.70 32.60 42.30 32.30 42.00 Z" fill="#1872ff" fill-rule="nonzero" group-id="1" node-id="119" stroke="none" target-height="2.2249985" target-width="2.421135" target-x="30.175" target-y="40.875"></path><path d="M 39.00 43.10 C 38.60 43.20 38.20 43.30 37.70 43.40 C 37.30 43.50 37.10 43.80 37.20 44.10 C 37.20 44.40 37.50 44.60 37.80 44.60 C 37.80 44.60 37.90 44.60 37.90 44.60 C 38.40 44.50 38.90 44.40 39.40 44.20 C 39.70 44.10 39.90 43.70 39.80 43.40 C 39.70 43.10 39.30 42.90 39.00 43.10 Z" fill="#1872ff" fill-rule="nonzero" group-id="1" node-id="121" stroke="none" target-height="1.5374985" target-width="2.5999985" target-x="37.2" target-y="43.0625"></path><path d="M 42.80 41.10 C 42.50 40.90 42.10 40.90 41.90 41.10 C 41.60 41.40 41.30 41.70 40.90 42.00 C 40.60 42.20 40.60 42.60 40.80 42.90 C 40.90 43.10 41.10 43.20 41.30 43.20 C 41.40 43.20 41.60 43.20 41.70 43.10 C 42.10 42.80 42.50 42.40 42.90 42.10 C 43.10 41.80 43.10 41.40 42.80 41.10 Z" fill="#1872ff" fill-rule="nonzero" group-id="1" node-id="123" stroke="none" target-height="2.2498322" target-width="2.3749695" target-x="40.6632" target-y="40.95017"></path><path d="M 35.60 42.40 C 35.40 42.10 35.00 42.00 34.70 42.10 C 34.40 42.30 34.30 42.70 34.50 43.00 L 34.60 43.20 C 34.50 43.20 34.40 43.10 34.20 43.10 C 33.90 43.00 33.50 43.20 33.40 43.50 C 33.30 43.80 33.50 44.20 33.80 44.30 C 34.00 44.40 34.10 44.40 34.30 44.40 L 34.00 44.50 C 33.70 44.70 33.60 45.10 33.80 45.40 C 33.90 45.60 34.10 45.70 34.40 45.70 C 34.50 45.70 34.60 45.70 34.70 45.60 L 36.30 44.70 C 36.40 44.60 36.60 44.50 36.60 44.30 C 36.60 44.10 36.60 44.00 36.50 43.80 L 35.60 42.40 Z" fill="#1872ff" fill-rule="nonzero" group-id="1" node-id="125" stroke="none" target-height="3.6014977" target-width="3.199997" target-x="33.4" target-y="42.098503"></path><path d="M 52.00 18.40 C 52.00 20.00 50.70 21.30 49.10 21.30 C 47.50 21.30 46.20 20.00 46.20 18.40 C 46.20 16.80 47.50 15.50 49.10 15.50 C 50.70 15.50 52.00 16.80 52.00 18.40 Z" fill="#ffbe1b" fill-rule="nonzero" group-id="1" node-id="127" stroke="none" target-height="5.799999" target-width="5.799999" target-x="46.2" target-y="15.5"></path><path d="M 48.70 19.90 C 48.60 19.90 48.50 19.90 48.40 19.80 L 47.40 18.80 C 47.20 18.60 47.20 18.30 47.40 18.10 C 47.60 17.90 47.90 17.90 48.10 18.10 L 48.70 18.70 L 50.20 16.90 C 50.40 16.70 50.70 16.70 50.90 16.80 C 51.10 17.00 51.10 17.30 51.00 17.50 L 49.00 19.70 C 48.90 19.90 48.80 19.90 48.70 19.90 C 48.70 19.90 48.70 19.90 48.70 19.90 Z" fill="#ffffff" fill-rule="nonzero" group-id="1" node-id="129" stroke="none" target-height="3.1633797" target-width="3.8133736" target-x="47.250008" target-y="16.73662"></path><path d="M 36.70 18.40 C 36.70 20.00 35.40 21.30 33.80 21.30 C 32.20 21.30 30.90 20.00 30.90 18.40 C 30.90 16.80 32.20 15.50 33.80 15.50 C 35.40 15.50 36.70 16.80 36.70 18.40 Z" fill="#ffbe1b" fill-rule="nonzero" group-id="1" node-id="131" stroke="none" target-height="5.799999" target-width="5.800001" target-x="30.9" target-y="15.5"></path><path d="M 33.40 19.90 C 33.30 19.90 33.20 19.90 33.10 19.80 L 32.10 18.80 C 31.90 18.60 31.90 18.30 32.10 18.10 C 32.30 17.90 32.60 17.90 32.80 18.10 L 33.40 18.70 L 34.90 16.90 C 35.10 16.70 35.40 16.70 35.60 16.80 C 35.80 17.00 35.80 17.30 35.70 17.50 L 33.90 19.70 C 33.70 19.90 33.50 19.90 33.40 19.90 C 33.40 19.90 33.40 19.90 33.40 19.90 Z" fill="#ffffff" fill-rule="nonzero" group-id="1" node-id="133" stroke="none" target-height="3.1633778" target-width="3.8133812" target-x="31.95" target-y="16.736622"></path><path d="M 12.60 37.70 C 12.60 39.30 11.30 40.60 9.70 40.60 C 8.10 40.60 6.80 39.30 6.80 37.70 C 6.80 36.10 8.10 34.80 9.70 34.80 C 11.30 34.80 12.60 36.10 12.60 37.70 Z" fill="#ffbe1b" fill-rule="nonzero" group-id="1" node-id="135" stroke="none" target-height="5.799999" target-width="5.8" target-x="6.8" target-y="34.8"></path><path d="M 9.30 39.20 C 9.20 39.20 9.10 39.20 9.00 39.10 L 8.00 38.10 C 7.80 37.90 7.80 37.60 8.00 37.40 C 8.20 37.20 8.50 37.20 8.70 37.40 L 9.20 38.00 L 10.70 36.20 C 10.90 36.00 11.20 36.00 11.40 36.10 C 11.60 36.30 11.60 36.60 11.50 36.80 L 9.60 39.00 C 9.50 39.10 9.40 39.20 9.30 39.20 C 9.30 39.20 9.30 39.20 9.30 39.20 Z" fill="#ffffff" fill-rule="nonzero" group-id="1" node-id="137" stroke="none" target-height="3.1633797" target-width="3.7133799" target-x="7.8500004" target-y="36.03662"></path></g></svg>