<?xml version="1.0" standalone="no"?><!DOCTYPE svg PUBLIC "-//W3C//DTD SVG 1.1//EN" "http://www.w3.org/Graphics/SVG/1.1/DTD/svg11.dtd"><svg height="1024" legacy-metrics="false" node-id="1" sillyvg="true" template-height="1024" template-width="1024" version="1.1" viewBox="0 0 1024 1024" width="1024" xmlns="http://www.w3.org/2000/svg" xmlns:xlink="http://www.w3.org/1999/xlink"><defs node-id="147"><clipPath id="clip-path" node-id="5"><path d="M 325.68 168.54 C 365.56 168.49 401.20 193.39 414.88 230.85 C 428.55 268.31 417.32 310.32 386.79 335.97 C 356.25 361.61 312.93 365.42 278.40 345.48 C 243.86 325.54 225.49 286.13 232.43 246.86 C 240.49 201.64 279.75 168.67 325.68 168.54 M 325.68 127.23 C 253.58 127.28 194.03 183.52 189.85 255.50 C 185.68 327.47 238.35 390.22 309.96 398.59 C 381.57 406.96 447.28 358.06 459.83 287.06 C 472.89 213.15 423.39 142.39 349.49 129.33 C 341.63 127.94 333.66 127.24 325.68 127.23 Z" fill="#000000" fill-rule="nonzero" node-id="150" stroke="none" target-height="272.27792" target-width="272.24033" target-x="189.63571" target-y="127.23"></path></clipPath><clipPath id="clip-path-2" node-id="7"><path d="M 753.10 244.11 C 792.98 244.06 828.62 268.96 842.30 306.42 C 855.97 343.88 844.74 385.89 814.21 411.54 C 783.67 437.18 740.35 440.99 705.82 421.05 C 671.28 401.11 652.91 361.70 659.85 322.43 C 667.91 277.21 707.17 244.24 753.10 244.11 M 753.10 202.80 C 681.00 202.85 621.45 259.09 617.27 331.07 C 613.10 403.04 665.77 465.79 737.38 474.16 C 808.99 482.53 874.70 433.63 887.25 362.63 C 900.31 288.72 850.82 218.00 776.91 204.90 C 769.05 203.51 761.08 202.81 753.10 202.80 Z" fill="#000000" fill-rule="nonzero" node-id="154" stroke="none" target-height="272.27783" target-width="272.2406" target-x="617.0558" target-y="202.8"></path></clipPath><clipPath id="clip-path-3" node-id="9"><path d="M 478.79 318.36 C 497.83 318.36 516.83 320.04 535.57 323.36 C 691.79 351.00 798.70 485.07 774.34 622.83 C 753.00 743.71 637.63 827.27 504.14 827.27 C 485.10 827.27 466.10 825.59 447.36 822.27 C 291.14 794.63 184.24 660.56 208.59 522.80 C 230.00 401.92 345.30 318.37 478.79 318.36 M 478.79 277.05 L 478.79 277.05 L 478.79 277.05 C 323.09 277.05 192.35 377.38 167.91 515.61 C 154.04 594.08 175.36 673.61 227.96 739.61 C 279.33 804.00 354.70 847.82 440.17 862.93 C 461.30 866.68 482.71 868.57 504.17 868.58 C 659.84 868.58 790.58 768.25 815.00 630.00 C 828.87 551.53 807.55 472.00 755.00 406.00 C 703.60 341.61 628.23 297.81 542.76 282.70 C 521.65 278.96 500.25 277.07 478.81 277.05 Z" fill="#000000" fill-rule="nonzero" node-id="158" stroke="none" target-height="591.53" target-width="655.35724" target-x="163.77661" target-y="277.05"></path></clipPath><clipPath id="clip-path-4" node-id="11"><path d="M 490.61 251.49 C 509.65 251.49 528.65 253.17 547.39 256.49 C 703.62 284.13 810.52 418.20 786.16 556.00 C 764.79 676.84 649.45 760.40 516.00 760.40 C 496.97 760.40 477.97 758.72 459.23 755.40 C 303.00 727.76 196.06 593.69 220.42 455.93 C 241.79 335.05 357.13 251.50 490.61 251.49 M 490.61 210.18 L 490.61 210.18 L 490.61 210.18 C 334.92 210.18 204.17 310.52 179.74 448.74 C 151.45 608.74 273.59 764.52 451.99 796.06 C 473.12 799.81 494.53 801.70 515.99 801.71 C 671.69 801.71 802.43 701.38 826.87 563.15 C 840.75 484.68 819.42 405.15 766.87 339.15 C 715.49 274.72 640.13 230.91 554.65 215.80 C 533.52 212.05 512.11 210.16 490.65 210.15 Z" fill="#000000" fill-rule="nonzero" node-id="162" stroke="none" target-height="591.56006" target-width="655.34454" target-x="175.66325" target-y="210.15"></path></clipPath><clipPath id="clip-path-5" node-id="13"><path d="M 671.79 531.56 C 670.58 531.56 669.37 531.45 668.17 531.24 L 504.00 502.20 C 498.60 501.25 493.81 498.19 490.67 493.70 C 487.53 489.21 486.30 483.66 487.26 478.26 L 509.96 349.86 C 512.15 338.84 522.75 331.59 533.82 333.55 C 544.88 335.50 552.36 345.94 550.64 357.05 L 531.48 465.12 L 675.36 490.56 C 685.89 492.44 693.25 502.04 692.32 512.69 C 691.39 523.35 682.49 531.53 671.79 531.56 Z" fill="#000000" fill-rule="nonzero" node-id="166" stroke="none" target-height="198.3248" target-width="205.3584" target-x="486.9619" target-y="333.2352"></path></clipPath><pattern height="39.15" id="新建图案色板_1" node-id="15" patternUnits="userSpaceOnUse" viewBox="0 0 39.15 39.15" width="39.15" x="0" y="0"><path d="M 0.00 0.00 L 39.15 0.00 L 39.15 39.15 L 0.00 39.15 Z" fill="#000000" fill-rule="nonzero" node-id="170" stroke="none" target-height="39.15" target-width="39.15" target-x="0" target-y="0"></path><path d="M 0.00 0.00 L 39.15 0.00 L 39.15 39.15 L 0.00 39.15 Z" fill="#066eb3" fill-rule="nonzero" node-id="172" stroke="none" target-height="39.15" target-width="39.15" target-x="0" target-y="0"></path></pattern><pattern height="39.15" id="新建图案色板_1-5" node-id="18" patternUnits="userSpaceOnUse" viewBox="0 0 39.15 39.15" width="39.15" x="0" y="0"><path d="M 0.00 0.00 L 39.15 0.00 L 39.15 39.15 L 0.00 39.15 Z" fill="#000000" fill-rule="nonzero" node-id="176" stroke="none" target-height="39.15" target-width="39.15" target-x="0" target-y="0"></path><path d="M 0.00 0.00 L 39.15 0.00 L 39.15 39.15 L 0.00 39.15 Z" fill="#066eb3" fill-rule="nonzero" node-id="178" stroke="none" target-height="39.15" target-width="39.15" target-x="0" target-y="0"></path></pattern></defs><path d="M 327.13 168.57 L 335.00 169.01 L 342.58 170.04 L 349.92 171.65 L 357.03 173.82 L 363.97 176.56 L 370.58 179.78 L 376.87 183.47 L 382.86 187.65 L 388.52 192.28 L 393.77 197.28 L 398.62 202.67 L 403.09 208.46 L 407.10 214.57 L 410.61 220.96 L 413.64 227.65 L 416.18 234.67 L 418.16 241.84 L 419.55 249.22 L 420.37 256.83 L 420.59 264.71 L 420.15 272.57 L 419.11 280.16 L 417.51 287.49 L 415.33 294.60 L 412.59 301.55 L 409.38 308.15 L 405.68 314.44 L 401.51 320.44 L 396.88 326.10 L 391.88 331.35 L 386.49 336.20 L 380.70 340.67 L 374.59 344.67 L 368.20 348.18 L 361.50 351.21 L 354.48 353.76 L 347.32 355.73 L 339.94 357.13 L 332.33 357.94 L 324.45 358.17 L 316.58 357.72 L 308.99 356.69 L 301.66 355.09 L 294.55 352.91 L 287.61 350.17 L 281.00 346.95 L 274.71 343.26 L 268.72 339.08 L 263.06 334.45 L 257.81 329.45 L 252.96 324.06 L 248.49 318.27 L 244.48 312.16 L 240.97 305.77 L 237.94 299.08 L 235.40 292.06 L 233.42 284.89 L 232.03 277.52 L 231.21 269.90 L 230.99 262.03 L 231.43 254.16 L 232.46 246.57 L 234.07 239.24 L 236.25 232.13 L 238.99 225.18 L 242.20 218.58 L 245.89 212.29 L 250.07 206.30 L 254.70 200.63 L 259.70 195.38 L 265.09 190.53 L 270.88 186.06 L 276.99 182.06 L 283.38 178.55 L 290.08 175.52 L 297.10 172.97 L 304.26 171.00 L 311.64 169.60 L 319.25 168.79 L 327.13 168.57 Z" fill="#ffffff" fill-rule="nonzero" node-id="182" stroke-linecap="butt" stroke-width="0.99999994" target-height="189.60101" target-width="189.60107" target-x="230.98874" target-y="168.56512"></path><g node-id="437"><g clip-path="url(#clip-path)" group-id="1" id="sillyvg_g_0" node-id="184"><path d="M 221.56 337.08 L 645.17 350.11 L 666.35 -98.86 L 242.75 -111.89 L 221.56 337.08 Z" fill="none" group-id="1" node-id="186" stroke="none" target-height="462" target-width="444.78998" target-x="221.56" target-y="-111.89"></path><path d="M 645.17 350.11 L 221.56 337.08 L 242.75 -111.89 L 666.35 -98.86 L 645.17 350.11 Z" fill="#066eb3" fill-rule="nonzero" group-id="1" node-id="188" stroke="none" target-height="462" target-width="444.78998" target-x="221.56" target-y="-111.89"></path><path d="M 200.39 786.04 L 623.99 799.08 L 645.17 350.11 L 221.56 337.08 L 200.39 786.04 Z" fill="none" group-id="1" node-id="190" stroke="none" target-height="462.00003" target-width="444.77997" target-x="200.39" target-y="337.08"></path><path d="M 623.99 799.08 L 200.39 786.04 L 221.56 337.08 L 645.17 350.11 L 623.99 799.08 Z" fill="#066eb3" fill-rule="nonzero" group-id="1" node-id="192" stroke="none" target-height="462.00003" target-width="444.77997" target-x="200.39" target-y="337.08"></path><path d="M -202.04 324.05 L 221.56 337.08 L 242.75 -111.89 L -180.86 -124.92 L -202.04 324.05 Z" fill="none" group-id="1" node-id="194" stroke="none" target-height="462" target-width="444.78998" target-x="-202.04" target-y="-124.92"></path><path d="M 221.56 337.08 L -202.04 324.05 L -180.86 -124.92 L 242.75 -111.89 L 221.56 337.08 Z" fill="#066eb3" fill-rule="nonzero" group-id="1" node-id="196" stroke="none" target-height="462" target-width="444.78998" target-x="-202.04" target-y="-124.92"></path><path d="M -223.22 773.01 L 200.39 786.04 L 221.56 337.08 L -202.04 324.05 L -223.22 773.01 Z" fill="none" group-id="1" node-id="198" stroke="none" target-height="461.99" target-width="444.78" target-x="-223.22" target-y="324.05"></path><path d="M 200.39 786.04 L -223.22 773.01 L -202.04 324.05 L 221.56 337.08 L 200.39 786.04 Z" fill="#066eb3" fill-rule="nonzero" group-id="1" node-id="200" stroke="none" target-height="461.99" target-width="444.78" target-x="-223.22" target-y="324.05"></path><path d="M 221.56 337.08 L 645.17 350.11 L 666.35 -98.86 L 242.75 -111.89 L 221.56 337.08 Z" fill="none" group-id="1" node-id="202" stroke="none" target-height="462" target-width="444.78998" target-x="221.56" target-y="-111.89"></path><path d="M 645.17 350.11 L 221.56 337.08 L 242.75 -111.89 L 666.35 -98.86 L 645.17 350.11 Z" fill="#066eb3" fill-rule="nonzero" group-id="1" node-id="204" stroke="none" target-height="462" target-width="444.78998" target-x="221.56" target-y="-111.89"></path><path d="M 200.39 786.04 L 623.99 799.08 L 645.17 350.11 L 221.56 337.08 L 200.39 786.04 Z" fill="none" group-id="1" node-id="206" stroke="none" target-height="462.00003" target-width="444.77997" target-x="200.39" target-y="337.08"></path><path d="M 623.99 799.08 L 200.39 786.04 L 221.56 337.08 L 645.17 350.11 L 623.99 799.08 Z" fill="#066eb3" fill-rule="nonzero" group-id="1" node-id="208" stroke="none" target-height="462.00003" target-width="444.77997" target-x="200.39" target-y="337.08"></path><path d="M -202.04 324.05 L 221.56 337.08 L 242.75 -111.89 L -180.86 -124.92 L -202.04 324.05 Z" fill="none" group-id="1" node-id="210" stroke="none" target-height="462" target-width="444.78998" target-x="-202.04" target-y="-124.92"></path><path d="M 221.56 337.08 L -202.04 324.05 L -180.86 -124.92 L 242.75 -111.89 L 221.56 337.08 Z" fill="#066eb3" fill-rule="nonzero" group-id="1" node-id="212" stroke="none" target-height="462" target-width="444.78998" target-x="-202.04" target-y="-124.92"></path><path d="M -223.22 773.01 L 200.39 786.04 L 221.56 337.08 L -202.04 324.05 L -223.22 773.01 Z" fill="none" group-id="1" node-id="214" stroke="none" target-height="461.99" target-width="444.78" target-x="-223.22" target-y="324.05"></path><path d="M 200.39 786.04 L -223.22 773.01 L -202.04 324.05 L 221.56 337.08 L 200.39 786.04 Z" fill="#066eb3" fill-rule="nonzero" group-id="1" node-id="216" stroke="none" target-height="461.99" target-width="444.78" target-x="-223.22" target-y="324.05"></path></g></g><path d="M 804.21 259.03 L 810.67 263.55 L 816.58 268.41 L 821.98 273.63 L 826.88 279.22 L 831.34 285.21 L 835.27 291.41 L 838.68 297.86 L 841.58 304.57 L 843.97 311.48 L 845.80 318.50 L 847.09 325.63 L 847.85 332.91 L 848.05 340.21 L 847.67 347.49 L 846.73 354.78 L 845.20 362.09 L 843.11 369.22 L 840.42 376.23 L 837.12 383.13 L 833.16 389.95 L 828.65 396.41 L 823.78 402.32 L 818.56 407.72 L 812.97 412.62 L 806.99 417.08 L 800.78 421.01 L 794.33 424.42 L 787.63 427.32 L 780.71 429.71 L 773.70 431.54 L 766.56 432.84 L 759.29 433.59 L 751.99 433.79 L 744.70 433.41 L 737.42 432.47 L 730.11 430.94 L 722.98 428.85 L 715.97 426.16 L 709.06 422.86 L 702.24 418.90 L 695.79 414.39 L 689.87 409.52 L 684.48 404.30 L 679.58 398.71 L 675.11 392.73 L 671.18 386.52 L 667.77 380.07 L 664.87 373.37 L 662.49 366.46 L 660.65 359.44 L 659.36 352.31 L 658.60 345.03 L 658.41 337.73 L 658.78 330.44 L 659.73 323.16 L 661.25 315.85 L 663.34 308.72 L 666.03 301.71 L 669.34 294.80 L 673.29 287.98 L 677.81 281.53 L 682.67 275.61 L 687.89 270.22 L 693.48 265.32 L 699.47 260.85 L 705.67 256.92 L 712.12 253.51 L 718.82 250.61 L 725.74 248.23 L 732.76 246.39 L 739.89 245.10 L 747.16 244.35 L 754.47 244.15 L 761.75 244.52 L 769.04 245.47 L 776.35 246.99 L 783.48 249.08 L 790.49 251.77 L 797.39 255.08 L 804.21 259.03 Z" fill="#ffffff" fill-rule="nonzero" node-id="219" stroke-linecap="butt" stroke-width="1" target-height="189.6377" target-width="189.63763" target-x="658.40845" target-y="244.1488"></path><path d="M 771.12 245.57 C 764.74 244.44 758.26 243.97 751.78 244.16 C 788.01 265.69 805.66 308.57 795.10 349.36 C 784.53 390.16 748.29 419.08 706.16 420.32 C 738.79 439.75 779.87 437.82 810.53 415.42 C 841.20 393.02 855.54 354.48 846.96 317.49 C 838.39 280.49 808.55 252.19 771.16 245.57 Z" fill="#769bac" fill-rule="nonzero" node-id="221" stroke="none" target-height="189.47034" target-width="143.25836" target-x="706.16" target-y="244.16"></path><g clip-path="url(#clip-path-2)" group-id="2" id="sillyvg_g_1" node-id="223"><path d="M 645.17 350.11 L 1068.77 363.14 L 1089.95 -85.82 L 666.35 -98.86 L 645.17 350.11 Z" fill="none" group-id="2" node-id="225" stroke="none" target-height="462" target-width="444.77997" target-x="645.17" target-y="-98.86"></path><path d="M 1068.77 363.14 L 645.17 350.11 L 666.35 -98.86 L 1089.95 -85.82 L 1068.77 363.14 Z" fill="#066eb3" fill-rule="nonzero" group-id="2" node-id="227" stroke="none" target-height="462" target-width="444.77997" target-x="645.17" target-y="-98.86"></path><path d="M 623.99 799.08 L 1047.59 812.11 L 1068.77 363.14 L 645.17 350.11 L 623.99 799.08 Z" fill="none" group-id="2" node-id="229" stroke="none" target-height="462" target-width="444.78003" target-x="623.99" target-y="350.11"></path><path d="M 1047.59 812.11 L 623.99 799.08 L 645.17 350.11 L 1068.77 363.14 L 1047.59 812.11 Z" fill="#066eb3" fill-rule="nonzero" group-id="2" node-id="231" stroke="none" target-height="462" target-width="444.78003" target-x="623.99" target-y="350.11"></path><path d="M 645.17 350.11 L 1068.77 363.14 L 1089.95 -85.82 L 666.35 -98.86 L 645.17 350.11 Z" fill="none" group-id="2" node-id="233" stroke="none" target-height="462" target-width="444.77997" target-x="645.17" target-y="-98.86"></path><path d="M 1068.77 363.14 L 645.17 350.11 L 666.35 -98.86 L 1089.95 -85.82 L 1068.77 363.14 Z" fill="#066eb3" fill-rule="nonzero" group-id="2" node-id="235" stroke="none" target-height="462" target-width="444.77997" target-x="645.17" target-y="-98.86"></path><path d="M 623.99 799.08 L 1047.59 812.11 L 1068.77 363.14 L 645.17 350.11 L 623.99 799.08 Z" fill="none" group-id="2" node-id="237" stroke="none" target-height="462" target-width="444.78003" target-x="623.99" target-y="350.11"></path><path d="M 1047.59 812.11 L 623.99 799.08 L 645.17 350.11 L 1068.77 363.14 L 1047.59 812.11 Z" fill="#066eb3" fill-rule="nonzero" group-id="2" node-id="239" stroke="none" target-height="462" target-width="444.78003" target-x="623.99" target-y="350.11"></path><path d="M 221.56 337.08 L 645.17 350.11 L 666.35 -98.86 L 242.75 -111.89 L 221.56 337.08 Z" fill="none" group-id="2" node-id="241" stroke="none" target-height="462" target-width="444.78998" target-x="221.56" target-y="-111.89"></path><path d="M 645.17 350.11 L 221.56 337.08 L 242.75 -111.89 L 666.35 -98.86 L 645.17 350.11 Z" fill="#066eb3" fill-rule="nonzero" group-id="2" node-id="243" stroke="none" target-height="462" target-width="444.78998" target-x="221.56" target-y="-111.89"></path><path d="M 200.39 786.04 L 623.99 799.08 L 645.17 350.11 L 221.56 337.08 L 200.39 786.04 Z" fill="none" group-id="2" node-id="245" stroke="none" target-height="462.00003" target-width="444.77997" target-x="200.39" target-y="337.08"></path><path d="M 623.99 799.08 L 200.39 786.04 L 221.56 337.08 L 645.17 350.11 L 623.99 799.08 Z" fill="#066eb3" fill-rule="nonzero" group-id="2" node-id="247" stroke="none" target-height="462.00003" target-width="444.77997" target-x="200.39" target-y="337.08"></path></g><path d="M 535.60 323.41 L 549.01 326.08 L 562.07 329.22 L 574.80 332.84 L 587.20 336.92 L 599.29 341.46 L 611.29 346.54 L 622.90 352.01 L 634.13 357.87 L 645.00 364.12 L 655.51 370.76 L 665.82 377.88 L 675.69 385.31 L 685.14 393.05 L 694.18 401.11 L 702.83 409.50 L 711.16 418.29 L 719.01 427.31 L 726.39 436.58 L 733.32 446.10 L 739.80 455.87 L 745.87 465.96 L 751.41 476.22 L 756.44 486.66 L 760.97 497.28 L 765.00 508.09 L 768.52 519.10 L 771.47 530.22 L 773.87 541.46 L 775.71 552.83 L 777.00 564.36 L 777.69 575.89 L 777.78 587.49 L 777.26 599.18 L 776.12 610.97 L 774.35 622.87 L 771.93 634.66 L 768.96 646.13 L 765.44 657.29 L 761.38 668.15 L 756.77 678.75 L 751.60 689.13 L 745.97 699.18 L 739.86 708.92 L 733.28 718.35 L 726.20 727.49 L 718.70 736.26 L 710.80 744.69 L 702.50 752.76 L 693.77 760.50 L 684.62 767.89 L 675.18 774.85 L 665.40 781.41 L 655.29 787.59 L 644.82 793.37 L 633.98 798.78 L 622.98 803.69 L 611.72 808.16 L 600.19 812.19 L 588.37 815.78 L 576.25 818.93 L 564.09 821.56 L 551.74 823.71 L 539.18 825.36 L 526.40 826.51 L 513.39 827.17 L 500.47 827.29 L 487.42 826.87 L 474.23 825.90 L 460.88 824.37 L 447.36 822.28 L 433.95 819.61 L 420.89 816.47 L 408.17 812.85 L 395.76 808.77 L 383.67 804.22 L 371.67 799.15 L 360.07 793.68 L 348.83 787.82 L 337.97 781.57 L 327.45 774.93 L 317.14 767.81 L 307.27 760.38 L 297.82 752.64 L 288.78 744.58 L 280.14 736.19 L 271.81 727.40 L 263.96 718.37 L 256.57 709.11 L 249.64 699.59 L 243.16 689.82 L 237.10 679.72 L 231.55 669.47 L 226.52 659.03 L 221.99 648.41 L 217.96 637.60 L 214.45 626.59 L 211.49 615.47 L 209.10 604.23 L 207.25 592.85 L 205.97 581.33 L 205.27 569.80 L 205.18 558.19 L 205.70 546.51 L 206.84 534.72 L 208.61 522.81 L 211.03 511.02 L 214.01 499.56 L 217.52 488.40 L 221.59 477.53 L 226.20 466.94 L 231.36 456.56 L 236.99 446.50 L 243.10 436.77 L 249.69 427.34 L 256.77 418.20 L 264.26 409.42 L 272.16 401.00 L 280.47 392.93 L 289.19 385.19 L 298.35 377.79 L 307.79 370.84 L 317.56 364.27 L 327.68 358.10 L 338.15 352.31 L 348.99 346.91 L 359.98 342.00 L 371.24 337.53 L 382.77 333.50 L 394.60 329.91 L 406.72 326.76 L 418.87 324.12 L 431.23 321.98 L 443.78 320.33 L 456.56 319.17 L 469.57 318.52 L 482.49 318.40 L 495.54 318.82 L 508.74 319.79 L 522.08 321.31 L 535.60 323.41 Z" fill="#066eb3" fill-rule="nonzero" node-id="250" stroke-linecap="butt" stroke-width="1" target-height="508.88837" target-width="572.60284" target-x="205.1804" target-y="318.39984"></path><g clip-path="url(#clip-path-3)" group-id="3" id="sillyvg_g_2" node-id="252"><path d="M 636.25 353.92 L 1058.60 374.04 L 1070.61 -23.04 L 648.25 -43.16 L 636.25 353.92 Z" fill="none" group-id="3" node-id="254" stroke="none" target-height="417.2" target-width="434.36" target-x="636.25" target-y="-43.16"></path><path d="M 1058.60 374.04 L 636.25 353.92 L 648.25 -43.16 L 1070.61 -23.04 L 1058.60 374.04 Z" fill="#066eb3" fill-rule="nonzero" group-id="3" node-id="256" stroke="none" target-height="417.2" target-width="434.36" target-x="636.25" target-y="-43.16"></path><path d="M 624.24 751.00 L 1046.59 771.12 L 1058.60 374.04 L 636.25 353.92 L 624.24 751.00 Z" fill="none" group-id="3" node-id="258" stroke="none" target-height="417.19998" target-width="434.36" target-x="624.24" target-y="353.92"></path><path d="M 1046.59 771.12 L 624.24 751.00 L 636.25 353.92 L 1058.60 374.04 L 1046.59 771.12 Z" fill="#066eb3" fill-rule="nonzero" group-id="3" node-id="260" stroke="none" target-height="417.19998" target-width="434.36" target-x="624.24" target-y="353.92"></path><path d="M 612.24 1148.08 L 1034.59 1168.20 L 1046.59 771.12 L 624.24 751.00 L 612.24 1148.08 Z" fill="none" group-id="3" node-id="262" stroke="none" target-height="417.19995" target-width="434.34998" target-x="612.24" target-y="751"></path><path d="M 1034.59 1168.20 L 612.24 1148.08 L 624.24 751.00 L 1046.59 771.12 L 1034.59 1168.20 Z" fill="#066eb3" fill-rule="nonzero" group-id="3" node-id="264" stroke="none" target-height="417.19995" target-width="434.34998" target-x="612.24" target-y="751"></path><path d="M 213.90 333.80 L 636.25 353.92 L 648.25 -43.16 L 225.91 -63.28 L 213.90 333.80 Z" fill="none" group-id="3" node-id="266" stroke="none" target-height="417.2" target-width="434.35" target-x="213.9" target-y="-63.28"></path><path d="M 636.25 353.92 L 213.90 333.80 L 225.91 -63.28 L 648.25 -43.16 L 636.25 353.92 Z" fill="#066eb3" fill-rule="nonzero" group-id="3" node-id="268" stroke="none" target-height="417.2" target-width="434.35" target-x="213.9" target-y="-63.28"></path><path d="M 201.89 730.88 L 624.24 751.00 L 636.25 353.92 L 213.90 333.80 L 201.89 730.88 Z" fill="none" group-id="3" node-id="270" stroke="none" target-height="417.2" target-width="434.36" target-x="201.89" target-y="333.8"></path><path d="M 624.24 751.00 L 201.89 730.88 L 213.90 333.80 L 636.25 353.92 L 624.24 751.00 Z" fill="#066eb3" fill-rule="nonzero" group-id="3" node-id="272" stroke="none" target-height="417.2" target-width="434.36" target-x="201.89" target-y="333.8"></path><path d="M 189.89 1127.96 L 612.24 1148.08 L 624.24 751.00 L 201.89 730.88 L 189.89 1127.96 Z" fill="none" group-id="3" node-id="274" stroke="none" target-height="417.19995" target-width="434.34998" target-x="189.89" target-y="730.88"></path><path d="M 612.24 1148.08 L 189.89 1127.96 L 201.89 730.88 L 624.24 751.00 L 612.24 1148.08 Z" fill="#066eb3" fill-rule="nonzero" group-id="3" node-id="276" stroke="none" target-height="417.19995" target-width="434.34998" target-x="189.89" target-y="730.88"></path><path d="M -208.45 313.67 L 213.90 333.80 L 225.91 -63.28 L -196.44 -83.41 L -208.45 313.67 Z" fill="none" group-id="3" node-id="278" stroke="none" target-height="417.21" target-width="434.36" target-x="-208.45" target-y="-83.41"></path><path d="M 213.90 333.80 L -208.45 313.67 L -196.44 -83.41 L 225.91 -63.28 L 213.90 333.80 Z" fill="#066eb3" fill-rule="nonzero" group-id="3" node-id="280" stroke="none" target-height="417.21" target-width="434.36" target-x="-208.45" target-y="-83.41"></path><path d="M -220.46 710.75 L 201.89 730.88 L 213.90 333.80 L -208.45 313.67 L -220.46 710.75 Z" fill="none" group-id="3" node-id="282" stroke="none" target-height="417.21" target-width="434.36" target-x="-220.46" target-y="313.67"></path><path d="M 201.89 730.88 L -220.46 710.75 L -208.45 313.67 L 213.90 333.80 L 201.89 730.88 Z" fill="#066eb3" fill-rule="nonzero" group-id="3" node-id="284" stroke="none" target-height="417.21" target-width="434.36" target-x="-220.46" target-y="313.67"></path><path d="M -232.46 1107.84 L 189.89 1127.96 L 201.89 730.88 L -220.46 710.75 L -232.46 1107.84 Z" fill="none" group-id="3" node-id="286" stroke="none" target-height="417.20996" target-width="434.35" target-x="-232.46" target-y="710.75"></path><path d="M 189.89 1127.96 L -232.46 1107.84 L -220.46 710.75 L 201.89 730.88 L 189.89 1127.96 Z" fill="#066eb3" fill-rule="nonzero" group-id="3" node-id="288" stroke="none" target-height="417.20996" target-width="434.35" target-x="-232.46" target-y="710.75"></path><path d="M 636.25 353.92 L 1058.60 374.04 L 1070.61 -23.04 L 648.25 -43.16 L 636.25 353.92 Z" fill="none" group-id="3" node-id="290" stroke="none" target-height="417.2" target-width="434.36" target-x="636.25" target-y="-43.16"></path><path d="M 1058.60 374.04 L 636.25 353.92 L 648.25 -43.16 L 1070.61 -23.04 L 1058.60 374.04 Z" fill="#066eb3" fill-rule="nonzero" group-id="3" node-id="292" stroke="none" target-height="417.2" target-width="434.36" target-x="636.25" target-y="-43.16"></path><path d="M 624.24 751.00 L 1046.59 771.12 L 1058.60 374.04 L 636.25 353.92 L 624.24 751.00 Z" fill="none" group-id="3" node-id="294" stroke="none" target-height="417.19998" target-width="434.36" target-x="624.24" target-y="353.92"></path><path d="M 1046.59 771.12 L 624.24 751.00 L 636.25 353.92 L 1058.60 374.04 L 1046.59 771.12 Z" fill="#066eb3" fill-rule="nonzero" group-id="3" node-id="296" stroke="none" target-height="417.19998" target-width="434.36" target-x="624.24" target-y="353.92"></path><path d="M 612.24 1148.08 L 1034.59 1168.20 L 1046.59 771.12 L 624.24 751.00 L 612.24 1148.08 Z" fill="none" group-id="3" node-id="298" stroke="none" target-height="417.19995" target-width="434.34998" target-x="612.24" target-y="751"></path><path d="M 1034.59 1168.20 L 612.24 1148.08 L 624.24 751.00 L 1046.59 771.12 L 1034.59 1168.20 Z" fill="#066eb3" fill-rule="nonzero" group-id="3" node-id="300" stroke="none" target-height="417.19995" target-width="434.34998" target-x="612.24" target-y="751"></path><path d="M 213.90 333.80 L 636.25 353.92 L 648.25 -43.16 L 225.91 -63.28 L 213.90 333.80 Z" fill="none" group-id="3" node-id="302" stroke="none" target-height="417.2" target-width="434.35" target-x="213.9" target-y="-63.28"></path><path d="M 636.25 353.92 L 213.90 333.80 L 225.91 -63.28 L 648.25 -43.16 L 636.25 353.92 Z" fill="#066eb3" fill-rule="nonzero" group-id="3" node-id="304" stroke="none" target-height="417.2" target-width="434.35" target-x="213.9" target-y="-63.28"></path><path d="M 201.89 730.88 L 624.24 751.00 L 636.25 353.92 L 213.90 333.80 L 201.89 730.88 Z" fill="none" group-id="3" node-id="306" stroke="none" target-height="417.2" target-width="434.36" target-x="201.89" target-y="333.8"></path><path d="M 624.24 751.00 L 201.89 730.88 L 213.90 333.80 L 636.25 353.92 L 624.24 751.00 Z" fill="#066eb3" fill-rule="nonzero" group-id="3" node-id="308" stroke="none" target-height="417.2" target-width="434.36" target-x="201.89" target-y="333.8"></path><path d="M 189.89 1127.96 L 612.24 1148.08 L 624.24 751.00 L 201.89 730.88 L 189.89 1127.96 Z" fill="none" group-id="3" node-id="310" stroke="none" target-height="417.19995" target-width="434.34998" target-x="189.89" target-y="730.88"></path><path d="M 612.24 1148.08 L 189.89 1127.96 L 201.89 730.88 L 624.24 751.00 L 612.24 1148.08 Z" fill="#066eb3" fill-rule="nonzero" group-id="3" node-id="312" stroke="none" target-height="417.19995" target-width="434.34998" target-x="189.89" target-y="730.88"></path><path d="M -208.45 313.67 L 213.90 333.80 L 225.91 -63.28 L -196.44 -83.41 L -208.45 313.67 Z" fill="none" group-id="3" node-id="314" stroke="none" target-height="417.21" target-width="434.36" target-x="-208.45" target-y="-83.41"></path><path d="M 213.90 333.80 L -208.45 313.67 L -196.44 -83.41 L 225.91 -63.28 L 213.90 333.80 Z" fill="#066eb3" fill-rule="nonzero" group-id="3" node-id="316" stroke="none" target-height="417.21" target-width="434.36" target-x="-208.45" target-y="-83.41"></path><path d="M -220.46 710.75 L 201.89 730.88 L 213.90 333.80 L -208.45 313.67 L -220.46 710.75 Z" fill="none" group-id="3" node-id="318" stroke="none" target-height="417.21" target-width="434.36" target-x="-220.46" target-y="313.67"></path><path d="M 201.89 730.88 L -220.46 710.75 L -208.45 313.67 L 213.90 333.80 L 201.89 730.88 Z" fill="#066eb3" fill-rule="nonzero" group-id="3" node-id="320" stroke="none" target-height="417.21" target-width="434.36" target-x="-220.46" target-y="313.67"></path><path d="M -232.46 1107.84 L 189.89 1127.96 L 201.89 730.88 L -220.46 710.75 L -232.46 1107.84 Z" fill="none" group-id="3" node-id="322" stroke="none" target-height="417.20996" target-width="434.35" target-x="-232.46" target-y="710.75"></path><path d="M 189.89 1127.96 L -232.46 1107.84 L -220.46 710.75 L 201.89 730.88 L 189.89 1127.96 Z" fill="#066eb3" fill-rule="nonzero" group-id="3" node-id="324" stroke="none" target-height="417.20996" target-width="434.35" target-x="-232.46" target-y="710.75"></path></g><path d="M 547.43 256.54 L 560.84 259.21 L 573.90 262.36 L 586.63 265.97 L 599.03 270.06 L 611.12 274.60 L 623.12 279.68 L 634.73 285.15 L 645.96 291.00 L 656.83 297.25 L 667.34 303.90 L 677.65 311.01 L 687.52 318.44 L 696.97 326.19 L 706.01 334.25 L 714.66 342.63 L 722.99 351.42 L 730.84 360.45 L 738.22 369.72 L 745.15 379.24 L 751.63 389.01 L 757.70 399.10 L 763.24 409.36 L 768.27 419.79 L 772.80 430.41 L 776.83 441.23 L 780.35 452.24 L 783.30 463.35 L 785.70 474.59 L 787.54 485.97 L 788.83 497.50 L 789.52 509.03 L 789.61 520.63 L 789.09 532.32 L 787.95 544.11 L 786.18 556.01 L 783.76 567.80 L 780.79 579.26 L 777.27 590.42 L 773.21 601.29 L 768.60 611.88 L 763.43 622.27 L 757.80 632.32 L 751.69 642.06 L 745.11 651.49 L 738.03 660.62 L 730.53 669.40 L 722.63 677.82 L 714.33 685.90 L 705.60 693.63 L 696.45 701.03 L 687.01 707.99 L 677.23 714.55 L 667.12 720.72 L 656.65 726.51 L 645.81 731.91 L 634.81 736.82 L 623.55 741.29 L 612.02 745.33 L 600.20 748.92 L 588.08 752.07 L 575.92 754.70 L 563.57 756.84 L 551.01 758.49 L 538.23 759.65 L 525.22 760.30 L 512.30 760.42 L 499.25 760.00 L 486.06 759.04 L 472.71 757.51 L 459.19 755.42 L 445.78 752.75 L 432.72 749.60 L 420.00 745.99 L 407.59 741.91 L 395.50 737.36 L 383.50 732.28 L 371.90 726.82 L 360.66 720.96 L 349.80 714.71 L 339.28 708.06 L 328.97 700.95 L 319.10 693.52 L 309.65 685.77 L 300.61 677.71 L 291.97 669.33 L 283.64 660.54 L 275.79 651.51 L 268.40 642.24 L 261.47 632.72 L 254.99 622.95 L 248.93 612.86 L 243.39 602.60 L 238.35 592.17 L 233.82 581.55 L 229.79 570.73 L 226.28 559.72 L 223.32 548.61 L 220.93 537.37 L 219.09 525.99 L 217.80 514.47 L 217.10 502.93 L 217.01 491.33 L 217.53 479.64 L 218.67 467.85 L 220.44 455.95 L 222.86 444.16 L 225.84 432.70 L 229.35 421.54 L 233.42 410.67 L 238.03 400.08 L 243.19 389.69 L 248.82 379.64 L 254.93 369.90 L 261.52 360.47 L 268.60 351.34 L 276.09 342.56 L 283.99 334.14 L 292.30 326.06 L 301.02 318.33 L 310.18 310.93 L 319.62 303.97 L 329.39 297.41 L 339.51 291.24 L 349.98 285.45 L 360.82 280.05 L 371.81 275.14 L 383.07 270.67 L 394.60 266.63 L 406.43 263.04 L 418.55 259.89 L 430.70 257.26 L 443.06 255.12 L 455.62 253.47 L 468.39 252.31 L 481.41 251.66 L 494.32 251.54 L 507.37 251.96 L 520.57 252.92 L 533.91 254.45 L 547.43 256.54 Z" fill="#ffffff" fill-rule="nonzero" node-id="327" stroke-linecap="butt" stroke-width="1" target-height="508.88824" target-width="572.6029" target-x="217.0109" target-y="251.53601"></path><g clip-path="url(#clip-path-4)" group-id="4" id="sillyvg_g_3" node-id="329"><path d="M 648.07 287.05 L 1070.42 307.18 L 1082.43 -89.91 L 660.08 -110.03 L 648.07 287.05 Z" fill="none" group-id="4" node-id="331" stroke="none" target-height="417.21" target-width="434.36005" target-x="648.07" target-y="-110.03"></path><path d="M 1070.42 307.18 L 648.07 287.05 L 660.08 -110.03 L 1082.43 -89.91 L 1070.42 307.18 Z" fill="#066eb3" fill-rule="nonzero" group-id="4" node-id="333" stroke="none" target-height="417.21" target-width="434.36005" target-x="648.07" target-y="-110.03"></path><path d="M 636.07 684.13 L 1058.42 704.25 L 1070.42 307.18 L 648.07 287.05 L 636.07 684.13 Z" fill="none" group-id="4" node-id="335" stroke="none" target-height="417.2" target-width="434.35004" target-x="636.07" target-y="287.05"></path><path d="M 1058.42 704.25 L 636.07 684.13 L 648.07 287.05 L 1070.42 307.18 L 1058.42 704.25 Z" fill="#066eb3" fill-rule="nonzero" group-id="4" node-id="337" stroke="none" target-height="417.2" target-width="434.35004" target-x="636.07" target-y="287.05"></path><path d="M 624.06 1081.21 L 1046.41 1101.34 L 1058.42 704.25 L 636.07 684.13 L 624.06 1081.21 Z" fill="none" group-id="4" node-id="339" stroke="none" target-height="417.20996" target-width="434.36005" target-x="624.06" target-y="684.13"></path><path d="M 1046.41 1101.34 L 624.06 1081.21 L 636.07 684.13 L 1058.42 704.25 L 1046.41 1101.34 Z" fill="#066eb3" fill-rule="nonzero" group-id="4" node-id="341" stroke="none" target-height="417.20996" target-width="434.36005" target-x="624.06" target-y="684.13"></path><path d="M 225.72 266.93 L 648.07 287.05 L 660.08 -110.03 L 237.73 -130.15 L 225.72 266.93 Z" fill="none" group-id="4" node-id="343" stroke="none" target-height="417.19998" target-width="434.36002" target-x="225.72" target-y="-130.15"></path><path d="M 648.07 287.05 L 225.72 266.93 L 237.73 -130.15 L 660.08 -110.03 L 648.07 287.05 Z" fill="#066eb3" fill-rule="nonzero" group-id="4" node-id="345" stroke="none" target-height="417.19998" target-width="434.36002" target-x="225.72" target-y="-130.15"></path><path d="M 213.72 664.01 L 636.07 684.13 L 648.07 287.05 L 225.72 266.93 L 213.72 664.01 Z" fill="none" group-id="4" node-id="347" stroke="none" target-height="417.2" target-width="434.35" target-x="213.72" target-y="266.93"></path><path d="M 636.07 684.13 L 213.72 664.01 L 225.72 266.93 L 648.07 287.05 L 636.07 684.13 Z" fill="#066eb3" fill-rule="nonzero" group-id="4" node-id="349" stroke="none" target-height="417.2" target-width="434.35" target-x="213.72" target-y="266.93"></path><path d="M 201.71 1061.09 L 624.06 1081.21 L 636.07 684.13 L 213.72 664.01 L 201.71 1061.09 Z" fill="none" group-id="4" node-id="351" stroke="none" target-height="417.19995" target-width="434.36" target-x="201.71" target-y="664.01"></path><path d="M 624.06 1081.21 L 201.71 1061.09 L 213.72 664.01 L 636.07 684.13 L 624.06 1081.21 Z" fill="#066eb3" fill-rule="nonzero" group-id="4" node-id="353" stroke="none" target-height="417.19995" target-width="434.36" target-x="201.71" target-y="664.01"></path><path d="M -196.63 246.81 L 225.72 266.93 L 237.73 -130.15 L -184.62 -150.27 L -196.63 246.81 Z" fill="none" group-id="4" node-id="355" stroke="none" target-height="417.2" target-width="434.36" target-x="-196.63" target-y="-150.27"></path><path d="M 225.72 266.93 L -196.63 246.81 L -184.62 -150.27 L 237.73 -130.15 L 225.72 266.93 Z" fill="#066eb3" fill-rule="nonzero" group-id="4" node-id="357" stroke="none" target-height="417.2" target-width="434.36" target-x="-196.63" target-y="-150.27"></path><path d="M -208.63 643.89 L 213.72 664.01 L 225.72 266.93 L -196.63 246.81 L -208.63 643.89 Z" fill="none" group-id="4" node-id="359" stroke="none" target-height="417.2" target-width="434.35" target-x="-208.63" target-y="246.81"></path><path d="M 213.72 664.01 L -208.63 643.89 L -196.63 246.81 L 225.72 266.93 L 213.72 664.01 Z" fill="#066eb3" fill-rule="nonzero" group-id="4" node-id="361" stroke="none" target-height="417.2" target-width="434.35" target-x="-208.63" target-y="246.81"></path><path d="M -220.64 1040.97 L 201.71 1061.09 L 213.72 664.01 L -208.63 643.89 L -220.64 1040.97 Z" fill="none" group-id="4" node-id="363" stroke="none" target-height="417.19995" target-width="434.36" target-x="-220.64" target-y="643.89"></path><path d="M 201.71 1061.09 L -220.64 1040.97 L -208.63 643.89 L 213.72 664.01 L 201.71 1061.09 Z" fill="#066eb3" fill-rule="nonzero" group-id="4" node-id="365" stroke="none" target-height="417.19995" target-width="434.36" target-x="-220.64" target-y="643.89"></path><path d="M 648.07 287.05 L 1070.42 307.18 L 1082.43 -89.91 L 660.08 -110.03 L 648.07 287.05 Z" fill="none" group-id="4" node-id="367" stroke="none" target-height="417.21" target-width="434.36005" target-x="648.07" target-y="-110.03"></path><path d="M 1070.42 307.18 L 648.07 287.05 L 660.08 -110.03 L 1082.43 -89.91 L 1070.42 307.18 Z" fill="#066eb3" fill-rule="nonzero" group-id="4" node-id="369" stroke="none" target-height="417.21" target-width="434.36005" target-x="648.07" target-y="-110.03"></path><path d="M 636.07 684.13 L 1058.42 704.25 L 1070.42 307.18 L 648.07 287.05 L 636.07 684.13 Z" fill="none" group-id="4" node-id="371" stroke="none" target-height="417.2" target-width="434.35004" target-x="636.07" target-y="287.05"></path><path d="M 1058.42 704.25 L 636.07 684.13 L 648.07 287.05 L 1070.42 307.18 L 1058.42 704.25 Z" fill="#066eb3" fill-rule="nonzero" group-id="4" node-id="373" stroke="none" target-height="417.2" target-width="434.35004" target-x="636.07" target-y="287.05"></path><path d="M 624.06 1081.21 L 1046.41 1101.34 L 1058.42 704.25 L 636.07 684.13 L 624.06 1081.21 Z" fill="none" group-id="4" node-id="375" stroke="none" target-height="417.20996" target-width="434.36005" target-x="624.06" target-y="684.13"></path><path d="M 1046.41 1101.34 L 624.06 1081.21 L 636.07 684.13 L 1058.42 704.25 L 1046.41 1101.34 Z" fill="#066eb3" fill-rule="nonzero" group-id="4" node-id="377" stroke="none" target-height="417.20996" target-width="434.36005" target-x="624.06" target-y="684.13"></path><path d="M 225.72 266.93 L 648.07 287.05 L 660.08 -110.03 L 237.73 -130.15 L 225.72 266.93 Z" fill="none" group-id="4" node-id="379" stroke="none" target-height="417.19998" target-width="434.36002" target-x="225.72" target-y="-130.15"></path><path d="M 648.07 287.05 L 225.72 266.93 L 237.73 -130.15 L 660.08 -110.03 L 648.07 287.05 Z" fill="#066eb3" fill-rule="nonzero" group-id="4" node-id="381" stroke="none" target-height="417.19998" target-width="434.36002" target-x="225.72" target-y="-130.15"></path><path d="M 213.72 664.01 L 636.07 684.13 L 648.07 287.05 L 225.72 266.93 L 213.72 664.01 Z" fill="none" group-id="4" node-id="383" stroke="none" target-height="417.2" target-width="434.35" target-x="213.72" target-y="266.93"></path><path d="M 636.07 684.13 L 213.72 664.01 L 225.72 266.93 L 648.07 287.05 L 636.07 684.13 Z" fill="#066eb3" fill-rule="nonzero" group-id="4" node-id="385" stroke="none" target-height="417.2" target-width="434.35" target-x="213.72" target-y="266.93"></path><path d="M 201.71 1061.09 L 624.06 1081.21 L 636.07 684.13 L 213.72 664.01 L 201.71 1061.09 Z" fill="none" group-id="4" node-id="387" stroke="none" target-height="417.19995" target-width="434.36" target-x="201.71" target-y="664.01"></path><path d="M 624.06 1081.21 L 201.71 1061.09 L 213.72 664.01 L 636.07 684.13 L 624.06 1081.21 Z" fill="#066eb3" fill-rule="nonzero" group-id="4" node-id="389" stroke="none" target-height="417.19995" target-width="434.36" target-x="201.71" target-y="664.01"></path><path d="M -196.63 246.81 L 225.72 266.93 L 237.73 -130.15 L -184.62 -150.27 L -196.63 246.81 Z" fill="none" group-id="4" node-id="391" stroke="none" target-height="417.2" target-width="434.36" target-x="-196.63" target-y="-150.27"></path><path d="M 225.72 266.93 L -196.63 246.81 L -184.62 -150.27 L 237.73 -130.15 L 225.72 266.93 Z" fill="#066eb3" fill-rule="nonzero" group-id="4" node-id="393" stroke="none" target-height="417.2" target-width="434.36" target-x="-196.63" target-y="-150.27"></path><path d="M -208.63 643.89 L 213.72 664.01 L 225.72 266.93 L -196.63 246.81 L -208.63 643.89 Z" fill="none" group-id="4" node-id="395" stroke="none" target-height="417.2" target-width="434.35" target-x="-208.63" target-y="246.81"></path><path d="M 213.72 664.01 L -208.63 643.89 L -196.63 246.81 L 225.72 266.93 L 213.72 664.01 Z" fill="#066eb3" fill-rule="nonzero" group-id="4" node-id="397" stroke="none" target-height="417.2" target-width="434.35" target-x="-208.63" target-y="246.81"></path><path d="M -220.64 1040.97 L 201.71 1061.09 L 213.72 664.01 L -208.63 643.89 L -220.64 1040.97 Z" fill="none" group-id="4" node-id="399" stroke="none" target-height="417.19995" target-width="434.36" target-x="-220.64" target-y="643.89"></path><path d="M 201.71 1061.09 L -220.64 1040.97 L -208.63 643.89 L 213.72 664.01 L 201.71 1061.09 Z" fill="#066eb3" fill-rule="nonzero" group-id="4" node-id="401" stroke="none" target-height="417.19995" target-width="434.36" target-x="-220.64" target-y="643.89"></path></g><path d="M 530.25 353.45 L 507.55 481.87 L 671.76 510.90" fill="#ffffff" fill-rule="nonzero" node-id="404" stroke="none" target-height="157.44998" target-width="164.21002" target-x="507.55" target-y="353.45"></path><g clip-path="url(#clip-path-5)" group-id="5" id="sillyvg_g_4" node-id="406"><path d="M 662.66 665.85 L 1086.27 678.88 L 1107.45 229.92 L 683.84 216.88 L 662.66 665.85 Z" fill="none" group-id="5" node-id="408" stroke="none" target-height="462" target-width="444.78998" target-x="662.66" target-y="216.88"></path><path d="M 1086.27 678.88 L 662.66 665.85 L 683.84 216.88 L 1107.45 229.92 L 1086.27 678.88 Z" fill="#066eb3" fill-rule="nonzero" group-id="5" node-id="410" stroke="none" target-height="462" target-width="444.78998" target-x="662.66" target-y="216.88"></path><path d="M 239.06 652.82 L 662.66 665.85 L 683.84 216.88 L 260.24 203.85 L 239.06 652.82 Z" fill="none" group-id="5" node-id="412" stroke="none" target-height="461.99997" target-width="444.78003" target-x="239.06" target-y="203.85"></path><path d="M 662.66 665.85 L 239.06 652.82 L 260.24 203.85 L 683.84 216.88 L 662.66 665.85 Z" fill="#066eb3" fill-rule="nonzero" group-id="5" node-id="414" stroke="none" target-height="461.99997" target-width="444.78003" target-x="239.06" target-y="203.85"></path></g><path d="M 269.18 694.65 C 258.72 694.62 248.67 698.70 241.18 705.99 L 176.59 768.58 C 160.67 784.04 160.26 809.48 175.69 825.44 C 191.15 841.39 216.60 841.79 232.56 826.34 L 297.15 763.76 C 308.92 752.36 312.60 734.96 306.44 719.77 C 300.29 704.58 285.54 694.64 269.15 694.65 Z" fill="url(#新建图案色板_1)" fill-rule="nonzero" node-id="417" stroke="none" target-height="143.01324" target-width="145.00134" target-x="164.3841" target-y="694.65"></path><path d="M 685.00 858.47 L 645.79 777.53 C 639.02 763.69 624.98 754.90 609.57 754.85 C 603.51 754.83 597.52 756.20 592.06 758.85 C 572.08 768.55 563.73 792.60 573.40 812.60 L 612.61 893.53 C 619.38 907.37 633.42 916.16 648.82 916.22 C 654.89 916.24 660.88 914.87 666.34 912.22 C 686.32 902.52 694.67 878.47 685.00 858.47 Z" fill="url(#新建图案色板_1)" fill-rule="nonzero" node-id="419" stroke="none" target-height="161.37" target-width="119.552185" target-x="569.42566" target-y="754.85"></path><path d="M 521.00 708.00 C 504.65 707.99 488.32 706.55 472.22 703.70 C 408.97 692.52 353.15 660.92 315.05 614.70 C 276.57 568.00 260.72 512.07 270.43 457.15 C 280.14 402.23 314.21 355.15 366.37 324.47 C 418.00 294.15 481.27 283.59 544.52 294.79 C 607.77 305.99 663.59 337.56 701.68 383.79 C 740.17 430.46 756.02 486.40 746.31 541.32 L 746.31 541.32 C 728.88 639.88 632.63 708.00 521.00 708.00 Z M 495.29 311.09 C 452.75 311.09 411.83 321.72 376.83 342.28 C 329.97 369.81 299.41 411.88 290.77 460.75 C 282.13 509.62 296.41 559.62 330.99 601.55 C 366.00 644.00 417.40 673.00 475.82 683.32 C 595.83 704.51 708.00 639.21 726.00 537.69 C 734.64 488.83 720.35 438.82 685.77 396.90 C 650.77 354.50 599.37 325.45 540.94 315.12 C 525.87 312.45 510.60 311.10 495.29 311.09 Z M 736.14 539.49 L 736.14 539.49 Z" fill="url(#新建图案色板_1-5)" fill-rule="nonzero" node-id="421" stroke="none" target-height="417.56125" target-width="481.35956" target-x="267.6902" target-y="290.43875"></path><path d="M 733.61 745.91 C 741.71 732.91 747.48 717.15 749.50 698.03 C 749.50 698.03 742.73 722.70 720.62 748.73 C 729.55 735.92 735.93 720.03 738.01 700.28 C 738.01 700.28 731.50 723.96 710.11 748.52 C 717.44 737.82 722.65 724.58 724.38 708.21 C 724.38 708.21 703.10 785.90 606.16 793.74 C 606.16 793.74 641.80 794.41 674.05 778.61 C 654.61 790.17 629.69 799.10 597.87 801.68 C 597.87 801.68 641.87 802.50 680.71 782.54 C 659.62 795.17 632.52 804.94 597.87 807.74 C 597.87 807.74 648.68 808.74 691.64 784.82 C 663.86 804.02 626.57 819.51 576.83 823.53 C 576.83 823.53 751.83 826.96 766.70 686.16 C 766.70 686.16 758.83 714.73 733.61 745.91 Z" fill="#769bac" fill-rule="nonzero" node-id="423" stroke="none" target-height="137.37006" target-width="189.87" target-x="576.83" target-y="686.16"></path><path d="M 246.53 707.45 C 258.97 718.45 274.71 727.54 294.76 733.21 C 294.76 733.21 269.64 721.45 245.89 693.06 C 257.94 704.95 273.74 714.67 294.46 720.52 C 294.46 720.52 270.36 709.22 248.04 681.87 C 258.13 691.66 271.32 699.65 288.49 704.50 C 288.49 704.50 209.40 667.50 218.80 562.50 C 218.80 562.50 211.55 600.50 222.52 637.80 C 213.73 614.92 208.76 586.66 211.84 552.19 C 211.84 552.19 202.84 599.06 217.10 644.19 C 207.48 619.34 202.01 588.60 205.37 551.07 C 205.37 551.07 195.03 605.18 212.65 655.44 C 197.24 622.24 187.53 579.57 192.36 525.70 C 192.36 525.70 156.60 712.00 304.28 753.70 C 304.28 753.75 275.21 740.10 246.53 707.45 Z" fill="#ffffff" fill-rule="nonzero" node-id="425" stroke="none" target-height="228" target-width="115.73128" target-x="188.54872" target-y="525.7"></path><path d="M 342.47 403.83 C 334.37 416.83 328.59 432.58 326.57 451.70 C 326.57 451.70 333.35 427.03 355.45 401.00 C 346.52 413.81 340.15 429.70 338.06 449.45 C 338.06 449.45 344.58 425.77 365.96 401.21 C 358.64 411.92 353.43 425.15 351.70 441.52 C 351.70 441.52 372.98 363.83 469.92 355.99 C 469.92 355.99 434.28 355.32 402.03 371.13 C 421.47 359.57 446.39 350.63 478.21 348.06 C 478.21 348.06 434.21 347.23 395.37 367.19 C 416.46 354.57 443.55 344.80 478.21 341.99 C 478.21 341.99 427.40 341.04 384.44 364.91 C 412.22 345.72 449.51 330.23 499.25 326.20 C 499.25 326.20 324.25 322.77 309.38 463.57 C 309.38 463.57 317.25 435.00 342.47 403.83 Z" fill="#066eb3" fill-rule="nonzero" node-id="427" stroke="none" target-height="137.37" target-width="189.87" target-x="309.38" target-y="326.2"></path><path d="M 255.62 217.66 C 250.59 225.89 247.51 235.16 246.62 244.77 C 246.62 244.77 250.45 230.77 262.97 216.06 C 257.39 224.21 254.00 233.66 253.12 243.50 C 253.12 243.50 256.81 230.09 268.92 216.18 C 264.35 222.99 261.58 230.84 260.85 239.00 C 260.85 239.00 272.85 195.00 327.80 190.56 C 327.80 190.56 307.61 190.18 289.35 199.14 C 300.35 192.59 314.47 187.53 332.49 186.07 C 332.49 186.07 307.57 185.60 285.58 196.91 C 297.52 189.76 312.87 184.22 332.49 182.64 C 332.49 182.64 303.72 182.10 279.39 195.64 C 295.12 184.77 316.24 175.99 344.39 173.72 C 344.39 173.72 245.31 171.72 236.88 251.50 C 236.89 251.49 241.35 235.32 255.62 217.66 Z" fill="#066eb3" fill-rule="nonzero" node-id="429" stroke="none" target-height="77.78" target-width="107.51001" target-x="236.88" target-y="173.72"></path><path d="M 528.33 432.45 L 533.36 433.93 L 538.05 435.78 L 542.43 437.99 L 546.52 440.55 L 550.39 443.50 L 553.88 446.69 L 557.00 450.13 L 559.77 453.82 L 562.18 457.77 L 564.16 461.85 L 565.70 466.07 L 566.83 470.45 L 567.50 474.91 L 567.66 479.41 L 567.33 483.97 L 566.49 488.62 L 565.10 493.14 L 563.31 497.35 L 561.09 501.27 L 558.46 504.93 L 555.45 508.30 L 552.14 511.34 L 548.51 514.06 L 544.55 516.46 L 540.40 518.47 L 536.05 520.10 L 531.49 521.33 L 526.70 522.18 L 521.89 522.58 L 516.98 522.53 L 511.96 522.02 L 506.81 521.03 L 501.78 519.55 L 497.09 517.70 L 492.71 515.50 L 488.62 512.93 L 484.75 509.98 L 481.26 506.79 L 478.14 503.35 L 475.37 499.66 L 472.96 495.71 L 470.98 491.63 L 469.44 487.42 L 468.31 483.04 L 467.65 478.58 L 467.48 474.08 L 467.81 469.51 L 468.65 464.86 L 470.04 460.34 L 471.83 456.13 L 474.05 452.21 L 476.68 448.55 L 479.69 445.18 L 483.00 442.14 L 486.63 439.42 L 490.59 437.02 L 494.74 435.01 L 499.09 433.39 L 503.65 432.15 L 508.44 431.31 L 513.26 430.90 L 518.16 430.95 L 523.18 431.46 L 528.33 432.45 Z" fill="#066eb3" fill-rule="nonzero" node-id="431" stroke-linecap="butt" stroke-width="1" target-height="91.68021" target-width="100.186005" target-x="467.4775" target-y="430.90176"></path><path d="M 179.17 776.61 L 191.87 763.90 L 193.57 762.50 L 195.37 761.46 L 197.31 760.78 L 199.35 760.43 L 201.37 760.43 L 203.40 760.78 L 205.34 761.46 L 207.15 762.50 L 208.84 763.90 L 208.84 763.90 L 210.25 765.59 L 211.28 767.40 L 211.97 769.34 L 212.31 771.38 L 212.32 773.40 L 211.97 775.43 L 211.28 777.37 L 210.25 779.18 L 208.84 780.87 L 196.14 793.58 L 194.44 794.98 L 192.64 796.02 L 190.70 796.70 L 188.66 797.05 L 186.64 797.05 L 184.61 796.70 L 182.67 796.02 L 180.86 794.98 L 179.17 793.58 L 179.17 793.58 L 177.76 791.89 L 176.73 790.08 L 176.04 788.14 L 175.69 786.10 L 175.69 784.08 L 176.04 782.05 L 176.73 780.11 L 177.76 778.30 L 179.17 776.61 Z" fill="#769bac" fill-rule="nonzero" node-id="433" stroke-linecap="butt" stroke-width="0.99999994" target-height="36.620667" target-width="36.62091" target-x="175.69412" target-y="760.42975"></path><path d="M 758.55 244.12 C 758.55 244.12 812.84 249.77 824.89 287.67 C 824.89 287.67 798.89 261.67 772.95 263.51 C 772.95 263.51 831.11 283.14 838.64 320.51 C 838.64 320.51 809.27 291.95 780.03 284.69 C 780.03 284.69 833.38 307.28 835.10 348.38 C 835.10 348.38 811.36 302.49 767.54 292.55 Z" fill="#ffffff" fill-rule="nonzero" node-id="435" stroke="none" target-height="104.26001" target-width="80.09003" target-x="758.55" target-y="244.12"></path></svg>