<?xml version="1.0" standalone="no"?><!DOCTYPE svg PUBLIC "-//W3C//DTD SVG 1.1//EN" "http://www.w3.org/Graphics/SVG/1.1/DTD/svg11.dtd"><svg t="1681376772517" class="icon" viewBox="0 0 1024 1024" version="1.1" xmlns="http://www.w3.org/2000/svg" p-id="23102" xmlns:xlink="http://www.w3.org/1999/xlink" width="200" height="200"><path d="M862.3104 333.696H1024v646.7328h-161.6896zM646.7328 549.2736h161.6896v431.1552h-161.6896zM431.1552 441.4976h161.6896v538.9568h-161.6896zM215.5776 710.9632h161.6896v269.4656H215.5776zM0 603.136h161.6896v377.2928H0z" fill="#00BCD4" p-id="23103"></path><path d="M80.8448 279.7824m-80.8448 0a80.8448 80.8448 0 1 0 161.6896 0 80.8448 80.8448 0 1 0-161.6896 0Z" fill="#3F51B5" p-id="23104"></path><path d="M296.4224 333.696m-80.8448 0a80.8448 80.8448 0 1 0 161.6896 0 80.8448 80.8448 0 1 0-161.6896 0Z" fill="#3F51B5" p-id="23105"></path><path d="M512 145.0496m-80.8448 0a80.8448 80.8448 0 1 0 161.6896 0 80.8448 80.8448 0 1 0-161.6896 0Z" fill="#3F51B5" p-id="23106"></path><path d="M727.5776 198.9376m-80.8448 0a80.8448 80.8448 0 1 0 161.6896 0 80.8448 80.8448 0 1 0-161.6896 0Z" fill="#3F51B5" p-id="23107"></path><path d="M943.1552 91.1616m-80.8448 0a80.8448 80.8448 0 1 0 161.6896 0 80.8448 80.8448 0 1 0-161.6896 0Z" fill="#3F51B5" p-id="23108"></path><path d="M918.912 42.6496L722.176 142.3616l-223.6672-56.576-215.5776 188.6208-188.6464-45.824-26.9312 102.4 242.5088 61.9776 215.5776-188.6208 207.5136 51.2 234.4192-115.8656z" fill="#3F51B5" p-id="23109"></path></svg>