<?xml version="1.0" standalone="no"?><!DOCTYPE svg PUBLIC "-//W3C//DTD SVG 1.1//EN" "http://www.w3.org/Graphics/SVG/1.1/DTD/svg11.dtd"><svg height="162" legacy-metrics="false" node-id="1" sillyvg="true" template-height="162" template-width="183" version="1.1" viewBox="0 0 183 162" width="183" xmlns="http://www.w3.org/2000/svg" xmlns:xlink="http://www.w3.org/1999/xlink"><defs node-id="24"><linearGradient gradientUnits="objectBoundingBox" id="linearGradient-1" node-id="5" x1="1" x2="0" y1="1" y2="1"><stop offset="0" stop-color="#419dff"></stop><stop offset="1" stop-color="#75c0fe"></stop></linearGradient><linearGradient gradientUnits="objectBoundingBox" id="linearGradient-2" node-id="8" x1="1" x2="0" y1="1" y2="1"><stop offset="0" stop-color="#e3f1fe"></stop><stop offset="1" stop-color="#e2efff"></stop></linearGradient></defs><g node-id="26"><path d="M 26.00 39.00 L 157.00 39.00 C 162.52 39.00 167.00 43.48 167.00 49.00 L 167.00 148.00 C 167.00 153.52 162.52 158.00 157.00 158.00 L 26.00 158.00 C 20.48 158.00 16.00 153.52 16.00 148.00 L 16.00 49.00 C 16.00 43.48 20.48 39.00 26.00 39.00 Z" fill="url(#linearGradient-1)" fill-rule="evenodd" group-id="1" id="矩形" node-id="13" stroke="none" target-height="119" target-width="151" target-x="16" target-y="39"></path><path d="M 26.00 39.00 L 157.00 39.00 C 162.52 39.00 167.00 43.48 167.00 49.00 L 167.00 49.00 C 167.00 54.52 162.52 59.00 157.00 59.00 L 26.00 59.00 C 20.48 59.00 16.00 54.52 16.00 49.00 L 16.00 49.00 C 16.00 43.48 20.48 39.00 26.00 39.00 Z" fill="#1d7bf7" fill-rule="evenodd" group-id="1" id="矩形" node-id="14" stroke="none" target-height="20" target-width="151" target-x="16" target-y="39"></path><path d="M 104.11 3.13 L 163.73 54.96 C 163.98 55.18 164.21 55.42 164.41 55.68 C 162.46 57.89 160.06 59.00 157.19 59.00 L 48.91 59.00 L 97.05 3.62 C 98.86 1.54 102.02 1.32 104.11 3.13 Z" fill="url(#linearGradient-2)" fill-rule="evenodd" group-id="1" id="形状结合" node-id="15" stroke="none" target-height="57.087414" target-width="115.500824" target-x="48.911" target-y="1.9125879"></path><path d="M 113.16 10.96 L 121.50 18.23 L 86.95 59.07 L 71.42 59.07 Z" fill="#ffffff" fill-rule="evenodd" group-id="1" id="矩形" node-id="16" stroke-linecap="butt" stroke-width="1" target-height="48.10852" target-width="50.084427" target-x="71.41885" target-y="10.962128"></path><path d="M 154.00 100.00 C 155.66 100.00 157.00 101.34 157.00 103.00 C 157.00 104.66 155.66 106.00 154.00 106.00 L 90.00 106.00 C 88.34 106.00 87.00 104.66 87.00 103.00 C 87.00 101.34 88.34 100.00 90.00 100.00 L 154.00 100.00 Z M 154.00 87.00 C 155.66 87.00 157.00 88.34 157.00 90.00 C 157.00 91.66 155.66 93.00 154.00 93.00 L 90.00 93.00 C 88.34 93.00 87.00 91.66 87.00 90.00 C 87.00 88.34 88.34 87.00 90.00 87.00 L 154.00 87.00 Z M 154.00 74.00 C 155.66 74.00 157.00 75.34 157.00 77.00 C 157.00 78.66 155.66 80.00 154.00 80.00 L 90.00 80.00 C 88.34 80.00 87.00 78.66 87.00 77.00 C 87.00 75.34 88.34 74.00 90.00 74.00 L 154.00 74.00 Z" fill="#3485f3" fill-rule="evenodd" group-id="1" id="形状结合" node-id="17" stroke="none" target-height="32" target-width="70" target-x="87" target-y="74"></path><path d="M 165.50 14.00 C 165.50 16.49 163.49 18.50 161.00 18.50 C 158.51 18.50 156.50 16.49 156.50 14.00 C 156.50 11.51 158.51 9.50 161.00 9.50 C 163.49 9.50 165.50 11.51 165.50 14.00 Z" fill="none" group-id="1" id="椭圆形" node-id="18" stroke="#449fff" stroke-linecap="butt" stroke-width="3" target-height="9" target-width="9" target-x="156.5" target-y="9.5"></path><g node-id="27"><path d="M 183.00 151.50 C 183.00 153.43 181.43 155.00 179.50 155.00 C 177.57 155.00 176.00 153.43 176.00 151.50 C 176.00 149.57 177.57 148.00 179.50 148.00 C 181.43 148.00 183.00 149.57 183.00 151.50 Z" fill="#449fff" fill-opacity="0.3" fill-rule="evenodd" group-id="1,2" id="椭圆形备份-2" node-id="19" stroke-linecap="butt" stroke-opacity="0.3" stroke-width="1" target-height="7" target-width="7" target-x="176" target-y="148"></path></g><g node-id="28"><path d="M 7.00 95.50 C 7.00 97.43 5.43 99.00 3.50 99.00 C 1.57 99.00 0.00 97.43 0.00 95.50 C -0.00 93.57 1.57 92.00 3.50 92.00 C 5.43 92.00 7.00 93.57 7.00 95.50 Z" fill="#449fff" fill-opacity="0.3" fill-rule="evenodd" group-id="1,3" id="椭圆形备份-3" node-id="20" stroke-linecap="butt" stroke-opacity="0.3" stroke-width="1" target-height="7" target-width="7" target-x="0" target-y="92"></path></g><path d="M 45.50 25.00 C 45.50 26.93 43.93 28.50 42.00 28.50 C 40.07 28.50 38.50 26.93 38.50 25.00 C 38.50 23.07 40.07 21.50 42.00 21.50 C 43.93 21.50 45.50 23.07 45.50 25.00 Z" fill="none" group-id="1" id="椭圆形备份" node-id="21" stroke="#449fff" stroke-linecap="butt" stroke-width="3" target-height="7" target-width="7" target-x="38.5" target-y="21.5"></path><path d="M 21.00 0.00 C 22.10 0.00 23.00 0.90 23.00 2.00 L 23.00 6.00 L 27.00 6.00 C 28.10 6.00 29.00 6.90 29.00 8.00 C 29.00 9.10 28.10 10.00 27.00 10.00 L 23.00 10.00 L 23.00 14.00 C 23.00 15.10 22.10 16.00 21.00 16.00 C 19.90 16.00 19.00 15.10 19.00 14.00 L 19.00 10.00 L 15.00 10.00 C 13.90 10.00 13.00 9.10 13.00 8.00 C 13.00 6.90 13.90 6.00 15.00 6.00 L 19.00 6.00 L 19.00 2.00 C 19.00 0.90 19.90 -0.00 21.00 0.00 Z" fill="#449fff" fill-rule="evenodd" group-id="1" id="形状结合" node-id="22" stroke="none" target-height="16" target-width="16" target-x="13" target-y="0"></path></g></svg>