<?xml version="1.0" standalone="no"?><!DOCTYPE svg PUBLIC "-//W3C//DTD SVG 1.1//EN" "http://www.w3.org/Graphics/SVG/1.1/DTD/svg11.dtd"><svg height="60" legacy-metrics="false" node-id="1" sillyvg="true" template-height="60" template-width="60" version="1.1" viewBox="0 0 60 60" width="60" xmlns="http://www.w3.org/2000/svg" xmlns:xlink="http://www.w3.org/1999/xlink"><defs node-id="27"></defs><g node-id="72"><path d="M 35.10 14.40 L 35.10 14.40 L 35.10 14.40 C 34.30 14.70 33.60 15.30 33.40 16.20 L 33.40 16.30 L 33.40 16.20 C 33.20 15.40 32.50 14.70 31.70 14.50 L 31.60 14.50 L 31.70 14.50 C 32.50 14.30 33.20 13.60 33.40 12.80 L 33.40 12.70 L 33.40 12.80 C 33.60 13.50 34.20 14.20 35.10 14.40 L 35.10 14.40 Z" fill="#5d8ef9" fill-rule="nonzero" group-id="1" node-id="33" stroke="none" target-height="3.5999994" target-width="3.499998" target-x="31.6" target-y="12.7"></path><path d="M 11.70 29.00 L 11.90 29.10 L 11.70 29.20 C 10.40 29.50 9.30 30.60 9.00 31.90 L 9.00 32.00 L 8.90 31.80 C 8.60 30.50 7.50 29.40 6.20 29.10 L 6.00 29.10 L 6.20 29.00 C 7.50 28.70 8.60 27.60 8.90 26.30 L 9.00 26.10 L 9.00 26.30 C 9.40 27.60 10.40 28.70 11.70 29.00 L 11.70 29.00 Z" fill="#ffbe1b" fill-rule="nonzero" group-id="1" node-id="35" stroke="none" target-height="5.8999996" target-width="5.8999996" target-x="6" target-y="26.1"></path><path d="M 25.50 49.10 L 25.70 49.20 L 25.50 49.30 C 24.20 49.60 23.10 50.70 22.80 52.00 L 22.70 52.20 L 22.60 52.00 C 22.30 50.70 21.20 49.60 19.90 49.30 L 19.70 49.20 L 19.90 49.10 C 21.20 48.80 22.30 47.70 22.60 46.40 L 22.70 46.20 L 22.80 46.40 C 23.10 47.80 24.20 48.80 25.50 49.10 L 25.50 49.10 Z" fill="#ffbe1b" fill-rule="nonzero" group-id="1" node-id="37" stroke="none" target-height="6" target-width="6" target-x="19.7" target-y="46.2"></path><path d="M 53.80 19.00 L 54.00 19.00 L 53.80 19.00 C 52.80 19.30 52.00 20.10 51.80 21.10 L 51.80 21.30 L 51.80 21.10 C 51.50 20.10 50.80 19.30 49.80 19.10 L 49.60 19.10 L 49.80 19.10 C 50.80 18.80 51.60 18.10 51.80 17.10 L 51.80 16.90 L 51.80 17.10 C 52.00 18.00 52.80 18.80 53.80 19.00 L 53.80 19.00 Z" fill="#5d8ef9" fill-rule="nonzero" group-id="1" node-id="39" stroke="none" target-height="4.3999996" target-width="4.4000015" target-x="49.6" target-y="16.9"></path><path d="M 47.30 11.70 L 47.60 11.80 L 47.30 11.90 C 45.60 12.30 44.20 13.70 43.80 15.40 L 43.70 15.70 L 43.60 15.40 C 43.20 13.70 41.80 12.30 40.10 11.90 L 39.80 11.80 L 40.10 11.70 C 41.80 11.30 43.20 9.90 43.60 8.20 L 43.70 7.90 L 43.80 8.20 C 44.20 9.90 45.50 11.20 47.30 11.70 L 47.30 11.70 Z" fill="#5d8ef9" fill-rule="nonzero" group-id="1" node-id="41" stroke="none" target-height="7.7999997" target-width="7.799999" target-x="39.8" target-y="7.9"></path><path d="M 44.30 44.20 L 16.50 44.20 C 14.70 44.20 13.40 42.80 13.40 41.10 L 13.40 21.10 C 13.40 19.30 14.80 18.00 16.50 18.00 L 44.20 18.00 C 46.00 18.00 47.30 19.40 47.30 21.10 L 47.30 41.00 C 47.50 42.80 46.00 44.20 44.30 44.20 L 44.30 44.20 Z" fill="#2371f5" fill-rule="nonzero" group-id="1" node-id="43" stroke="none" target-height="26.2" target-width="33.9" target-x="13.4" target-y="18"></path><path d="M 37.10 20.50 C 37.10 21.00 36.70 21.50 36.10 21.50 C 35.60 21.50 35.10 21.10 35.10 20.50 C 35.10 20.00 35.50 19.50 36.10 19.50 C 36.70 19.50 37.10 19.90 37.10 20.50 Z" fill="#ffffff" fill-rule="nonzero" group-id="1" node-id="45" stroke="none" target-height="2" target-width="2" target-x="35.1" target-y="19.5"></path><path d="M 41.10 20.50 C 41.10 21.05 40.65 21.50 40.10 21.50 C 39.55 21.50 39.10 21.05 39.10 20.50 C 39.10 19.95 39.55 19.50 40.10 19.50 C 40.65 19.50 41.10 19.95 41.10 20.50 Z" fill="#ffffff" fill-rule="nonzero" group-id="1" node-id="47" stroke="none" target-height="2" target-width="2" target-x="39.1" target-y="19.5"></path><path d="M 44.90 20.50 C 44.90 21.00 44.50 21.50 43.90 21.50 C 43.40 21.50 42.90 21.10 42.90 20.50 C 42.90 20.00 43.30 19.50 43.90 19.50 C 44.50 19.50 44.90 19.90 44.90 20.50 Z" fill="#ffffff" fill-rule="nonzero" group-id="1" node-id="49" stroke="none" target-height="2" target-width="2" target-x="42.9" target-y="19.5"></path><path d="M 44.20 44.20 L 16.50 44.20 C 14.70 44.20 13.40 42.80 13.40 41.00 L 13.40 23.60 L 47.40 23.60 L 47.40 41.10 C 47.40 42.90 45.90 44.20 44.20 44.20 L 44.20 44.20 Z" fill="#1890ff" fill-rule="nonzero" group-id="1" node-id="51" stroke="none" target-height="20.6" target-width="34" target-x="13.4" target-y="23.6"></path><path d="M 26.40 34.90 C 26.40 38.00 23.90 40.60 20.70 40.60 C 17.60 40.60 15.00 38.10 15.00 34.90 C 15.00 31.80 17.50 29.20 20.70 29.20 C 23.80 29.20 26.40 31.80 26.40 34.90 Z" fill="#ffbe1b" fill-rule="nonzero" group-id="1" node-id="53" stroke="none" target-height="11.399998" target-width="11.4" target-x="15" target-y="29.2"></path><path d="M 24.90 34.90 C 24.90 37.20 23.00 39.10 20.70 39.10 C 18.40 39.10 16.50 37.20 16.50 34.90 C 16.50 32.60 18.40 30.70 20.70 30.70 C 23.00 30.60 24.90 32.50 24.90 34.90 Z" fill="#ffe37b" fill-rule="nonzero" group-id="1" node-id="55" stroke="none" target-height="8.399998" target-width="8.4" target-x="16.5" target-y="30.7"></path><path d="M 44.00 40.90 L 41.30 40.60 L 41.30 29.90 L 44.00 29.90 Z" fill="#8ac9f9" fill-rule="nonzero" group-id="1" node-id="57" stroke="none" target-height="11.000002" target-width="2.7000008" target-x="41.3" target-y="29.9"></path><path d="M 37.00 32.70 L 39.70 32.70 L 39.70 40.60 L 37.00 40.60 Z" fill="#8ac9f9" fill-rule="nonzero" group-id="1" node-id="59" stroke="none" target-height="7.8999977" target-width="2.7000008" target-x="37" target-y="32.7"></path><path d="M 32.60 35.20 L 35.30 35.20 L 35.30 40.60 L 32.60 40.60 Z" fill="#8ac9f9" fill-rule="nonzero" group-id="1" node-id="61" stroke="none" target-height="5.3999977" target-width="2.7000008" target-x="32.6" target-y="35.2"></path><path d="M 28.30 37.70 L 31.00 37.70 L 31.00 40.60 L 28.30 40.60 Z" fill="#8ac9f9" fill-rule="nonzero" group-id="1" node-id="63" stroke="none" target-height="2.8999977" target-width="2.7000008" target-x="28.3" target-y="37.7"></path><path d="M 43.30 25.20 C 43.20 25.10 43.00 25.00 42.80 25.00 L 40.00 25.00 C 39.60 25.00 39.40 25.30 39.40 25.60 C 39.40 26.00 39.70 26.20 40.00 26.20 L 40.00 26.20 L 41.20 26.20 L 34.70 30.70 L 33.70 29.80 C 33.50 29.60 33.10 29.60 32.90 29.70 L 27.60 33.20 C 27.30 33.40 27.20 33.80 27.40 34.10 C 27.50 34.30 27.70 34.40 27.90 34.40 C 28.00 34.40 28.10 34.40 28.30 34.30 L 33.10 31.10 L 34.10 32.00 C 34.30 32.20 34.70 32.20 34.90 32.10 L 41.90 27.30 L 41.80 28.20 C 41.80 28.60 42.00 28.90 42.40 28.90 C 42.40 28.90 42.40 28.90 42.50 28.90 C 42.80 28.90 43.10 28.70 43.10 28.30 L 43.30 25.60 C 43.50 25.50 43.40 25.40 43.30 25.20 Z" fill="#ffffff" fill-rule="nonzero" group-id="1" node-id="65" stroke="none" target-height="9.400002" target-width="16.09996" target-x="27.31218" target-y="25"></path></g><path d="M 23.30 36.90 L 22.50 36.10 C 23.30 35.00 23.00 33.50 22.00 32.70 C 21.10 32.00 19.70 32.10 18.90 32.90 C 18.00 33.80 18.00 35.40 18.90 36.30 C 19.80 37.20 21.10 37.20 22.00 36.50 L 22.80 37.30 C 22.90 37.40 23.20 37.40 23.30 37.30 C 23.40 37.30 23.40 37.10 23.30 36.90 L 23.30 36.90 Z M 22.00 36.10 C 21.60 36.50 21.10 36.70 20.60 36.70 C 20.10 36.70 19.60 36.50 19.20 36.10 C 18.40 35.30 18.40 34.10 19.20 33.30 C 20.00 32.50 21.20 32.50 22.00 33.30 C 22.70 34.10 22.70 35.30 22.00 36.10 L 22.00 36.10 Z" fill="#ffffff" fill-rule="nonzero" group-id="2" node-id="70" stroke="none" target-height="5.0625" target-width="5.074999" target-x="18.225" target-y="32.2375"></path></svg>