<svg t="1682307618217" class="icon" viewBox="0 0 1280 1024" version="1.1" xmlns="http://www.w3.org/2000/svg" p-id="25825" width="200" height="200"><path d="M1152.01 128H410.53A127.94 127.94 0 0 0 320.01 165.5L18.75 466.74c-25 25-25 65.52 0 90.5L320.01 858.5c24 24 56.56 37.5 90.5 37.5H1152.01c70.7 0 128-57.3 128-128V256c0-70.7-57.3-128-128-128z m-169.38 508.12c12.5 12.5 12.5 32.76 0 45.26l-45.24 45.24c-12.5 12.5-32.76 12.5-45.26 0L768.01 602.5l-124.12 124.12c-12.5 12.5-32.76 12.5-45.26 0l-45.24-45.24c-12.5-12.5-12.5-32.76 0-45.26L677.51 512l-124.12-124.12c-12.5-12.5-12.5-32.76 0-45.26l45.24-45.24c12.5-12.5 32.76-12.5 45.26 0L768.01 421.5l124.12-124.12c12.5-12.5 32.76-12.5 45.26 0l45.24 45.24c12.5 12.5 12.5 32.76 0 45.26L858.51 512l124.12 124.12z" fill="" p-id="25826"></path></svg>