<svg t="1681636693111" class="icon" viewBox="0 0 1024 1024" version="1.1" xmlns="http://www.w3.org/2000/svg" p-id="5130" data-spm-anchor-id="a313x.7781069.0.i8" width="200" height="200"><path d="M138.666667 138.666667m128 0l85.333333 0q128 0 128 128l0 85.333333q0 128-128 128l-85.333333 0q-128 0-128-128l0-85.333333q0-128 128-128Z" fill="#73b19f" p-id="5131" data-spm-anchor-id="a313x.7781069.0.i5" class="selected"></path><path d="M138.666667 544m128 0l85.333333 0q128 0 128 128l0 85.333333q0 128-128 128l-85.333333 0q-128 0-128-128l0-85.333333q0-128 128-128Z" fill="#addcd4" p-id="5132" data-spm-anchor-id="a313x.7781069.0.i9" class=""></path><path d="M544 138.666667m128 0l85.333333 0q128 0 128 128l0 85.333333q0 128-128 128l-85.333333 0q-128 0-128-128l0-85.333333q0-128 128-128Z" fill="#addcd4" p-id="5133" data-spm-anchor-id="a313x.7781069.0.i7" class=""></path><path d="M544 544m128 0l85.333333 0q128 0 128 128l0 85.333333q0 128-128 128l-85.333333 0q-128 0-128-128l0-85.333333q0-128 128-128Z" fill="#73b19f" p-id="5134" data-spm-anchor-id="a313x.7781069.0.i2" class="selected"></path></svg>